<svg version="1" xmlns="http://www.w3.org/2000/svg" width="2048" height="2048" viewBox="0 0 1536.000000 1536.000000"><path d="M151 396c0 .3-1.9.5-4.3.6-2.3 0-6.4.4-9.2.8-2.7.4-6.6.9-8.5 1.1-1.9.2-3.5.4-3.5.5 0 .1-1.6.3-3.5.5-6.8.8-8.6 1.1-9.9 1.9-.7.4-1.5.5-1.8.2-.3-.3-1.8.1-3.4 1-1.6.8-2.9 1.2-2.9 1 0-1-12.7 4.7-15.7 7-1.8 1.4-3.3 2.2-3.3 1.8 0-1.4-20.5 20-24.9 25.9-7.4 10.1-13.2 23.6-14.6 34.1-1 6.7-1 7.1-1.8 8.3-.4.6-.3 1.4.3 1.8.6.4.7 1.2.3 1.8-1.1 1.9-1.1 7.1.1 8.6.8 1.1.8 1.3-.2.7-.8-.5-1.2.1-1.2 2.3 0 1.6.6 3.2 1.3 3.4.9.4.9.6 0 .6-1.6.1-1.7 4.3-.1 5.9.8.8.9 1.2.1 1.2-1.3 0-1.2 1.8.1 3.9.6 1 .5 1.2-.2.7-.7-.4-1.2-.3-1.2.3 0 .5.5 1.3 1 1.6.7.4.7 1.3 0 2.4-.5 1-.5 2.2-.1 2.7.5.5 1.6 3 2.6 5.5 1.8 5 7.4 11.6 11.6 13.8 1.5.7 4.2 1.5 6 1.6 1.9.2 3.6.5 3.9.6.6.2.5.2 6.9-.5 3-.3 6.4-1.2 7.7-2.1 1.3-.8 3.1-1.5 4-1.5 1 0 1.4-.3 1.1-.6-.3-.4.5-1.6 1.9-2.7 3.4-2.7 4.6-6 4.9-13.5.2-6.9-.5-7.5-5.2-4.5-4 2.7-6.7 2.6-9.3-.2-2.3-2.5-2.4-3.1-2.5-19.3-.1-11.5.3-18.1 1.2-21.2.8-2.5 1.5-5 1.7-5.5.8-3.3 3-9.1 3.6-9.9.5-.5.6-1.5.3-2.2-.3-.8 0-1.4.6-1.4s1.1-.9 1.1-1.9c0-1.1.3-2.1.8-2.3.4-.2 1.6-2 2.6-4.1 1.1-2.1 3-4.9 4.2-6.3 1.3-1.3 2-2.4 1.6-2.4-.4 0 1.1-1.6 3.3-3.6 4.6-4.1 14.9-10.4 17.1-10.4.7 0 1.4-.4 1.4-.9 0-.7 9.5-4.7 13.5-5.7.6-.2 1.9-.5 3-.8 7.3-2 19.7-4.2 23.3-4.2 2.3.1 4.2-.2 4.2-.6 0-.7 9.4-.3 15 .8 1.9.3 4.5.7 5.8.8 1.2 0 2.2.4 2.2.7 0 .3.6.6 1.3.6 1.6 0 15.1 6.5 15.5 7.5.2.4 1 .8 1.7.8 1.7 0 12.5 10.2 12.5 11.8 0 .6.4 1.2.9 1.2.7 0 3.5 5.4 4.6 9 .1.3.5 1.2.8 2 2.5 5.5 3.4 13.3 3.2 25.4-.3 12.6-.8 17.7-2.3 20-.3.6-.7 1.7-.8 2.6-.5 3.3-1.2 4.8-5.3 12.7-2.4 4.6-4.7 8.3-5.2 8.3s-.9.6-.9 1.3c0 .7-1 2.4-2.2 3.7-1.3 1.3-3.6 4-5.1 6-4.2 5.2-11.2 12.4-14.8 15.1-1.7 1.3-4 3.2-5 4.1-1.1 1-2.1 1.8-2.4 1.8-.3 0-3.1 1.2-6.2 2.6-6.7 2.9-21.6 7-25.3 6.9-1.4 0-2.8.4-3.2 1-.5.6-.8.5-.8-.3 0-.7-.5-1-1.1-.6-1.1.7-.4-5 1-7.1.3-.6.6-1.3.7-1.8.1-.4.2-.8.4-1 .2-.3.5-1.7 2-9.7 1.3-7 1.7-9.1 2.5-13 .3-1.4 1-5.4 1.6-9 .6-3.6 1.3-7.2 1.6-8 .3-.8.7-2.6.9-4 .1-1.4.5-3.6.9-5 3.3-14 3.9-33.6 1.2-41.5-2.1-6.2-5.6-9.6-12.7-12.2-6.1-2.3-16.7-2.8-21-1-3.4 1.5-10.9 7-11 8.1 0 .5-.7 1.4-1.5 2-.8.6-1.6 2.3-1.9 3.8-.4 2.6-.2 2.8 3 2.9 3.9.2 4 .2 7.6 1.7 2.8 1.2 4.1 3.7 4.3 9 .1 1.7.4 3.5.8 3.8.3.3.4 1.1.2 1.7-.3.7-.7 3.4-.9 6.2-.3 2.7-1.2 8.4-2.1 12.5-.8 4.1-1.8 8.6-2.1 10-.2 1.4-.7 3.2-1 4-.3.8-.8 2.8-1.1 4.5-.3 1.6-.9 3.8-1.4 4.7-.5 1-.7 1.8-.3 1.8.3 0 .1.7-.6 1.5s-.9 1.5-.5 1.5.2.7-.5 1.5-1 1.5-.6 1.5c.3 0-.1 1.7-.9 3.7-.7 2.1-2 5.8-2.6 8.3-1.5 5.3-1.4 5.1-2.2 7-.3.8-1.7 5.5-3.2 10.5-1.5 4.9-3.1 10.5-3.7 12.3-.5 1.8-1.1 3.9-1.2 4.5-.1.7-.4 1.6-.7 2.2-.4.5-.5 2-.4 3.2.1 1.3-.2 2.3-.5 2.3-.4 0-1.1 1.9-1.5 4.2-.4 2.4-.9 4.7-1.1 5.3-.2.5-.5 1.7-.7 2.5-.2.8-1.5 5.3-2.9 10-2.4 7.7-3.5 11.9-4.5 16-.2.8-.4 2.7-.6 4.2-.1 1.6-.5 2.8-.8 2.8-.3 0-.5 7.1-.4 15.7.1 8.7.3 15.8.4 15.8.1 0 .4 1.4.7 3.2.2 1.8 1.3 4.9 2.5 7 5.1 9.3 12.3 13.4 23.3 13.5 7.8 0 9-.2 12.4-2 1.2-.7 2.2-1 2.2-.6s1.1-.3 2.4-1.5c3.2-3 2.9-7.5-.9-12.5-2.4-3.1-3-5-3.2-10-.5-13.9-.2-26.1.7-26.1.1 0 .3-1.1.5-2.5.4-2.7.4-3 3.3-13.8 1.1-3.9 1.7-7.2 1.5-7.2-.3 0 0-.7.7-1.5.6-.8 1-1.8.7-2.2-.3-.4 0-1.9.6-3.3 1.4-3.6 1.9-5.2 2.1-7.8 0-1.2.5-2.2 1-2.2s.3-.6-.3-1.4c-.9-1.1-.9-1.5.1-1.9 1.3-.4 10.4 8.4 16.5 15.9 8.6 10.6 15.7 18.9 16.4 19.2.5.2.9 1 .9 1.7s.4 1.5.9 1.7c1.2.4 8.1 9.6 8.1 10.7 0 .5.4 1.1.8 1.3.5.1 2.9 3.2 5.3 6.8 2.4 3.6 4.6 6.7 4.9 7 .3.3 1.7 2.1 3 4 2.8 4 3.2 4.6 6.3 8.1 1.2 1.4 3.8 4.5 5.7 6.9 1.9 2.3 5.5 6.4 8 9 2.5 2.6 5.2 5.6 6.2 6.6.9 1.1 3.5 3.5 5.8 5.4 2.4 1.9 4.8 3.9 5.4 4.5 2.6 2.4 12.4 9.4 16.1 11.5 2.2 1.3 4.2 2.7 4.5 3.1 1 1.3 16.6 7.6 22 8.9 3 .7 6.9 1.6 8.5 2 2.9.7 20.6.5 23.5-.2 17.4-4.5 26.8-10.4 34.7-21.8 6.5-9.5 7.5-18.5 2.9-26.5-2.5-4.2-9.2-9.5-12.1-9.5-3.4 0-.3-1.8 3.2-1.9 5.5-.1 14.2-2.5 15.3-4.1.3-.4 2.4-1.7 4.8-2.9 2.3-1.2 4.2-2.6 4.2-3.1 0-.6.4-.9.9-.7 1.5.4 10.1-9.4 12.9-14.7 3.7-7.4 4.4-11.5 2.2-14.1-1.1-1.4-1.5-1.4-3.7 0-2.6 1.7-5.6 4.2-7.9 6.3-.8.7-1.4 1-1.4.5 0-.4-.4-.3-.8.3-1 1.5-9.6 7.1-12.1 7.9-1.2.3-2.1 1.1-2.1 1.7 0 .6-.3.9-.6.5-.3-.3-1.8-.1-3.3.5-4.5 1.7-6.4 2-13.5 1.9-9.4-.1-16.2-3.3-20.4-9.4-1.7-2.4-2.9-4.7-2.6-5 .3-.3.2-1.2-.2-1.9-.5-.7-.9-2.1-1-3.1-.1-.9-.2-1.8-.4-2-.7-.9-.6-3.7.1-3.7.6 0 .6-.7 0-1.8-1.4-2.6-1.4-3.4.1-4.3.9-.6 1-.9.1-.9s-1-.7-.3-2.5c.7-1.7.6-2.5-.1-2.5-.8 0-.7-.5.1-1.5.7-.8.8-1.5.3-1.5-.8 0-.9-2.6-.4-7.2.1-.7 1.9.6 5.5 3.7.6.6 2.2 1.6 3.6 2.3 1.4.7 3.9 2.1 5.5 3.1 1.7 1 3.3 1.6 3.8 1.4.4-.2.7 0 .7.4 0 .5 1.5 1 3.3 1.2 8 .7 11.7.7 11.7-.1 0-.4.3-.7.8-.6 1.5.3 8.2-1.5 8.8-2.3.3-.5 1.2-.9 2-.9.9 0 2.2-.6 2.9-1.3.8-.6 3-2.3 4.9-3.7 2-1.4 3.6-2.9 3.6-3.4s.6-1.4 1.4-2c1.5-1.3 8.8-14.6 7.9-14.6-.3 0-.1-.6.5-1.3.5-.6 1.3-3.3 1.7-6 .4-2.6 1-4.7 1.4-4.7 1.1 0 .5-18.3-.7-21.3-.6-1.5-.8-2.7-.4-2.7s.2-.4-.4-.8c-.5-.4-1.8-2.5-2.8-4.7-1.7-3.7-9.7-12.3-11.7-12.6-1.4-.2-2.2-.5-4.2-1.4-1.1-.4-10.1-.8-20-.9-17.4-.1-18.4 0-23.2 2.3-13.9 6.8-24.7 16.4-31.9 28.2-2.5 4.2-4.6 8.2-4.6 8.8 0 .6-.7 2.3-1.6 3.6-.9 1.4-1.3 2.5-1 2.5.4 0 .2.9-.4 2.1-.7 1.1-1.4 3.3-1.7 4.7-.3 1.5-.6 3.1-.7 3.7-.1.5-.5 2.3-.9 4-.7 2.9-1 5.2-2.5 16.5-.8 5.9-.7 17.2.2 23 .8 5.3 3.9 15.5 4.8 15.8.4.2.8 1 .8 1.8 0 2.6 10.6 13.8 14.2 14.9 1.3.4 2.5 1.1 2.8 1.4.6.9 10.8 5 13.6 5.5 1.2.3 3.7.8 5.5 1.3 1.9.5 4.4.8 5.7.7 1.2-.1 2.2.2 2.2.6 0 1.1 3 .6 3.8-.6 1-1.4 4-1.3 3.8.1-.1.7-1 2.4-1.9 3.8-1 1.6-1.3 2.7-.6 2.7 1.1 0 .8 4.9-.6 8.3-1 2.4-6.3 7.6-7 6.9-.3-.3-.5 0-.5.6 0 .7-.6 1.2-1.4 1.2-.8 0-1.6.4-1.8 1-.4 1.4-12.4 3.7-18.3 3.5-6.6-.2-11.9-1.9-18-5.5-2.7-1.6-6.1-3.5-7.5-4.2-1.4-.7-2.7-1.5-3-1.8-.3-.3-2.3-1.4-4.4-2.5-3.8-2-16.1-13.5-20.7-19.5-6.8-8.8-10.3-13-11.1-13-.4 0-.8-.5-.8-1.1 0-.6-.6-1.6-1.2-2.3-.7-.7-3.1-3.4-5.3-6.1-2.2-2.7-5.1-6-6.4-7.4-1.3-1.4-6-6.6-10.5-11.6-10.3-11.4-28.3-29.4-31.8-32-1.6-1.1-2.8-2.5-2.8-3.1 0-.6 1.2-1 2.8-.9 1.5.1 3.2-.1 3.7-.4.6-.3 1.7-.6 2.5-.8 1.2-.1 7.1-1.3 9-1.8.6-.1 12-4.3 14-5.2.8-.3 1.8-.5 2.3-.5.4.1.7-.1.7-.6 0-.4 1.5-1.3 3.3-2.1 1.7-.8 4.7-2.5 6.5-3.9 1.7-1.3 3.2-2 3.2-1.6 0 .5.4.4.8-.1.4-.6 3-2.7 5.8-4.8 5.4-3.9 16.2-14.9 19.1-19.5 1-1.5 2-2.9 2.4-3.2 2.6-2.1 14.5-24.6 15.3-29 .1-.3.4-1 .8-1.5 1.9-3.1 2.9-24.3 1.5-35.5-1.4-11.7-3.3-19.4-6.6-25.8-1.2-2.3-1.9-4.2-1.6-4.2 1.3 0-10-14.2-13.6-17.2-2.3-1.8-4.7-3.9-5.4-4.6-.8-.6-1.8-1.2-2.4-1.2-.6 0-1.1-.4-1.1-.8 0-1.5-20.6-10.5-27-11.7-.8-.2-1.5-.4-1.5-.5 0-.3-8.7-1.9-13.5-2.5-11.1-1.4-37-2.4-37-1.5zm192.1 141.5c.4 1.1.8 1.6.8 1.2.1-.5.8-.1 1.7.8 1.7 1.7 2.7 9.2 1.3 10-.4.3-.6 1.2-.2 2 .3.8.1 1.5-.4 1.5s-1 .6-1 1.2c0 3.2-4.8 11.2-9.2 15.6-2.6 2.6-7.2 5.8-10.2 7.1-3 1.3-6.1 2.6-6.9 3-.8.4-3.4.7-5.7.7-2.4-.1-4.3.2-4.3.6 0 .4-.7.5-1.5.2-1.1-.5-1.3-1.3-.9-2.8.4-1.1.8-3 1-4.1.4-3 4.4-14.5 5.5-15.9.5-.6 2.6-3.6 4.6-6.6 4.6-7 10.5-12.4 16.6-15.5 3.5-1.7 7.9-1.2 8.8 1zM551.8 413.5c-.3.3-1.8.8-3.4 1.1-1.6.2-4 1.3-5.4 2.3-2 1.5-2.5 2.7-2.6 6.7 0 2.6.4 5.8 1 6.9.7 1.4 1.1 8.2 1.1 18.1v15.9l-11.5.1c-14.5.2-23.5 1.1-29.4 2.8-2.5.8-4.6 1.2-4.6 1 0-.6-2.4 1.4-6 4.9-2.2 2.2-2.7 3.5-2.4 6.4.2 2 .9 4 1.6 4.5.7.4.9.8.4.8s-.1.9.8 1.9c1.2 1.3 2.6 1.8 4.4 1.5 3.5-.6 4.1-.6 7.5-.1 1.5.2 2.7.1 2.7-.2 0-.3 2.4-.5 5.2-.4 2.9.1 5.3.2 5.3.3 0 .1 1 .3 2.3.4 1.2.2 2.2-.2 2.2-.7 0-.6.5-.6 1.3 0 1.4 1 7.8 1 9.5-.1.7-.4 1.2-.3 1.2.3s.7.8 1.4.5c1.6-.6 1.5.6-.6 9.6-.6 2.5-1.2 5.4-1.4 6.5-.2 1.1-2 7.4-3.9 14-2 6.6-3.8 13.1-3.9 14.5-.2 1.4-.5 2.7-.6 3-.1.3-.3.9-.4 1.5-.1.5-1 2.8-1.9 5-1 2.1-2 4.8-2.2 6-.2 1.1-.4 2-.5 2-.1 0-.3.7-.5 1.5s-.6 2.8-1 4.5c-.4 1.6-.8 4.2-1 5.6-.1 1.4-.5 3.1-.9 3.7-.4.7-.9 2.2-1.2 3.5-.2 1.2-.7 3.3-1 4.7-.3 1.4-.7 3.3-.7 4.2-.1 1-.5 1.8-.9 1.8s-.7.3-.7.7c.1.5 0 1.1-.1 1.5-.1.5-.4 1.2-.5 1.8-.1.5-.4 1.2-.5 1.5-.1.3-.3.8-.4 1.2-1.2 5.3-3 12-3.3 12.6-.3.5-1.1-.2-1.7-1.5-1.3-2.6-1.7-2.6-23.1-3.2-6.6-.2-12.4-.1-12.9.2-.5.3-2.3.6-4 .8-1.7.1-5.1.5-7.6.9s-5.1.7-5.7.8c-.7 0-1.3.4-1.3.8s-.9.5-2 .2-2-.1-2 .4-.9.9-2 .9-2-.6-2-1.2-.7-1.7-1.6-2.5c-3.5-2.9-5.7-9.2-5.9-17.1-.1-4.3-.4-8.1-.8-8.4-.3-.4-.2-1.5.3-2.5.7-1.2.7-2 0-2.4-.6-.4-.8-1.1-.4-1.6.3-.6.7-2.9.9-5.2.6-7.2 1.5-11 3.7-14.9 1.2-2.1 2.3-3.6 2.6-3.4.2.3 1.5.1 2.9-.5 1.6-.6 3.4-.5 5.7.5 5 2.1 8 9 8.1 18.7.2 7.3-1.9 17-3.7 17.7-.5.2-.6.7-.3 1.2s-.4 1.2-1.5 1.5c-1.8.6-2 1.2-1.4 3.8.3 1.8.8 3.4 1.1 3.7.3.3 3 .5 6.1.4 12.6-.2 26.7-12.5 29.8-26 1.5-6.8 1.1-18.9-.8-24.4-1.1-3-2-6.1-2-6.8-.1-.6-.5-1.2-.8-1.2-.4 0-1.3-1.3-2-2.9-1.5-3.7-11.5-14.1-13.8-14.2-.9-.1-2.5-.2-3.4-.2-1 0-1.8-.2-1.8-.6 0-.3-1.9-.6-4.2-.5-2.4 0-4.9-.4-5.5-.9-.7-.5-1.3-.6-1.3-.1s-3.5.9-7.7.9c-7.3 0-13.1 1.5-16.5 4.4-7.6 6.4-15.3 15.3-14.1 16.5.3.3.2.6-.4.6-.6 0-1.3.8-1.6 1.7-.3 1-1.3 3.8-2.2 6.3-.9 2.5-1.9 5.5-2.1 6.7-.2 1.3-.7 3.5-1 5-.4 1.6-.6 8-.6 14.3.2 17.2.8 20.4 8.2 39 3.7 9.4 3.9 8.9-4.2 14.8-4 3-8.9 7.5-10.8 10-1.9 2.6-4.5 5.8-5.7 7.2-1.3 1.4-2.3 2.8-2.3 3.2 0 .3-.7 1.4-1.6 2.2-.9.9-1.7 2.2-1.8 2.9-.1.6-1.3 2.8-2.7 4.8-2.3 3.4-2.4 4.5-2.4 15.6s.2 12.3 3 17.8c3.2 6.5 9.6 12.2 14.6 13.2 1.6.3 2.9 1 2.9 1.6 0 .6.2.8.5.5.3-.3 3.2 0 6.5.7 14.9 3.1 30.8-.3 40.6-8.6 4-3.3 8.4-9.2 9-12 3.6-15.6 4.9-28.5 2.9-29.3-.5-.2-.4-.5.3-.5.7-.1 1-.6.6-1.2s-.8-2.8-.9-4.8c-.2-2-1-5.6-1.9-8.1-.9-2.5-1.6-5.3-1.6-6.2 0-.9-.4-1.8-1-2-.5-.2-1.1-1.2-1.3-2.3-.2-1.1-.9-3.1-1.6-4.4-1.2-2.1-1.1-2.6.5-3.8 1-.7 2.6-1.4 3.6-1.4 1.9-.2 3.7-.5 4.1-.9.1-.1 1.3-.3 2.7-.5 3-.3 5.4-.8 14.5-3.1 3.9-.9 10.2-1.7 14.2-1.8 4-.1 7.5-.5 7.9-.9 1.7-1.7 2.1-.2 2 7.3-.1 4.4-.5 8-.9 8-.5 0-.5.6 0 1.2.4.7.9 3 .9 5.1.2 5.5 1.4 10.8 3.2 14.7 1.7 3.9 9.2 12.3 11.3 12.8.8.2 1.5.7 1.7 1 .1.4 5.5.7 12 .6 15.8-.1 19.1-1.8 18.2-9.8-.2-2.1-3.7-5.5-5.7-5.6-1.1 0-2.9-3.7-2.5-5.3.1-.4-.2-.7-.6-.7-.7 0-1.1-1.8-1.4-5.5-.1-2.1 1.3-12.1 2.2-16 1-3.8 1.5-5.8 2.4-10.8.3-1.2.7-3.2 1-4.4.9-4 2-11.8 1.8-12.6-.1-.4.1-.7.6-.7.4 0 .8-1.2.9-2.8.2-3.6 1-7.7 2.8-13.2 1.4-4.4 4.2-16 5.1-21 .3-1.4.8-3.4 1.1-4.5.4-1.1.8-2.9.9-4 .3-2.2 1.1-5.9 1.4-6.3.2-.1.3-.5.4-1 .2-.4.8-2.7 1.6-5.2.7-2.5 1.3-5.1 1.3-5.8 0-.6.3-1.2.7-1.2.3 0 .6-.8.7-1.8.1-1 1-4.3 2.1-7.3 1-3 1.9-7.4 1.9-9.7 0-2.3.3-4.5.6-4.9.4-.3.7-2.1.7-3.9 0-2.3.5-3.4 1.8-3.8 1-.4 11.9-.6 24.3-.5 12.4.1 24.4-.3 26.9-.9 2.5-.6 5.6-1.3 6.9-1.6 10.2-2.3 17.9-6.5 20.2-10.8.7-1.2 1.3-4.4 1.4-7 .2-4.4-.1-5.3-3.4-8.9-2.1-2.1-4.2-3.9-4.8-3.9-.6 0-1.4-.6-1.6-1.3-.4-.9-.6-.9-.6 0-.1.7-.8 1-1.6.7-.8-.4-1.7.1-2.1 1-.3.9-1 1.4-1.4 1.1-1.4-.9-4.1.7-3.6 2 .6 1.6-1.3 3.5-2.9 2.9-.7-.3-2.8.4-4.6 1.5-3.8 2.2-7.6 2.5-33 2.2l-14.6-.1.2-8.3c.1-8.1-1.2-16.3-3.6-22.2-.6-1.7-1.3-4.2-1.5-5.7-.4-3.1-3.9-9.6-6.3-11.8-3.6-3.3-12.5-6.2-14.2-4.6-.9.8-1 .8-.5-.2.7-1.2.4-1.6-.6-.7zm-127.2 222c-.3.8-.2 1.5.2 1.5s.7 2.7.7 6 .3 6 .6 6c1.5 0-2.2 16.9-4.3 19.4-.4.5-.3 1.7.2 2.6 1.2 2.2-3.2 8.4-7 9.9-3.7 1.6-9.2.5-11.6-2.2-1.7-2-2-3.6-1.8-8.8.1-6.5.5-9 1.4-9.9.3-.3 1.5-2.5 2.7-5 4.1-8.3 21.5-26.2 18.9-19.5zM1384.7 415.5c-1.9.7-4.2 1.8-4.9 2.6-2 2.1-1.3 9.9 1.2 14.2 2 3.4 2.2 4.6 1.6 14-.3 5.6-.8 11.5-1 13.2-.2 1.6-.4 3.5-.5 4.2-.1.8-4.1 1.1-13.3 1.1-7.3 0-13.5.1-13.8.2-.3.1-1.6.4-3 .5-12.9 1.8-15.8 2.7-19.9 6.3-3 2.6-5.6 8.4-4.3 9.7.4.4.7 1 .8 1.3.2 2 2.4 6 3.9 7.2 1 .8 1.9 1.5 1.9 1.4 1.2-1 5-2.4 8.1-2.9 6.7-1.1 7.9-1.2 9.4-.1 1.2.9 1.3.8.6-.3-.6-1-.4-1.2.6-.6 1.9 1.2 4.9 1.4 4.9.3 0-.5.5-.6 1.2-.2 1.7 1.1 8.8 1.1 8.8 0 0-.4.6-.4 1.3.1.6.5 2.4.8 3.8.7l2.6-.3-2.4 10.2c-2.8 12-3.1 13.1-3.3 13.4-.3.3-.4.7-1.4 4.8-.4 1.6-1.4 4.7-2.2 6.8-.8 2-1.4 4-1.4 4.5 0 .7-.8 5.5-1.7 9.7-.2 1.1-.6 3.8-.9 6-.6 4.1-4.5 17.1-7 23.5-.7 1.9-1.9 5.5-2.5 8-.7 2.5-1.4 4.9-1.5 5.5-.8 2.9-1.5 6.4-2 10-.4 2.2-.9 4.2-1.3 4.5-.3.3-.7 2.1-.7 4-.1 1.9-.5 5-.8 6.9-2.7 13.7-2.4 37.9.5 38.9.5.2.9 1.2.9 2.3 0 1 .5 1.9 1 1.9.6 0 1 .6 1 1.3 0 .7 1.4 2.3 3.1 3.7 1.7 1.4 3.6 2.9 4.3 3.5 1.3 1.1 24 1.3 27.2.2 3.3-1.2 6.5-6.3 5.8-9.2-.3-1.4-1-2.3-1.5-2-.4.3-1.3-.4-1.9-1.5-.6-1.2-2-3-3.1-4.1-1.8-1.8-1.9-3-1.5-13.7.3-6.4.8-12.8 1.2-14.2.3-1.4.7-3.6.9-5 .2-1.4.6-3.6.9-5 .4-1.4.8-3.9 1.1-5.5.4-3 1.1-6.7 2.1-11.5.3-1.4.8-4.3 1.1-6.4.3-2.2 1.6-5.4 2.8-7.3 1.3-1.8 2.3-4.8 2.3-7 .1-3.8 1.3-12 2.2-14.3.1-.3.3-1 .4-1.5.1-.6.8-3.7 1.5-7s1.5-6.7 1.6-7.5c.2-.8.4-1.5.5-1.5.1 0 .3-.7.5-1.5s2-6.7 4-13 3.8-14.3 4.1-17.7c.2-3.5.9-7.4 1.4-8.8l1-2.5 22.7.2c12.6.1 24.2-.1 25.8-.5 1.7-.4 4.5-.9 6.4-1.2 1.9-.3 4.2-1 5.1-1.5 1-.5 2-.7 2.2-.5.3.3 2.7-.4 5.4-1.6 5.2-2.3 11.7-7.3 10.7-8.3-.4-.3-.1-.6.6-.6.8 0 1.1-.7.7-1.5-.3-.8-.1-1.5.4-1.5.8 0 .7-2.5-.5-7.6-.2-1.1-2-3.6-4-5.5-3.2-3.3-4-3.6-8.9-3.4-3.5.1-5.9.7-7 1.7-.9.9-2.6 2-3.9 2.4-1.2.3-3.3 2-4.8 3.7l-2.5 3-21.9-.2c-12-.1-22.1-.3-22.3-.5-.9-.9-.6-13.6.3-13.6.7 0 .7-.3 0-.8-.5-.4-1.1-2.3-1.1-4.2-.4-12.4-4.1-23.3-9.4-27.8-2.7-2.3-9.1-5.3-10.3-4.9-.7.2-2.4.1-3.8-.3s-4.1-.2-6.2.5zM904.8 513c-1.5.5-1.9 12.2-.6 13.6.4.4.3 1.3-.3 2-.7.8-.7 1.4.1 1.9.7.4.8 1.1.1 1.8-.5.7-1.1 2.5-1.4 4.2-.3 1.6-1.1 4.6-1.7 6.5-.7 1.9-1.3 4.4-1.5 5.5-.2 1.1-.4 2.1-.5 2.2-.3.4-.5 1.2-1.4 6.3-.5 2.5-1 5.4-1.3 6.5-.2 1.1-.7 3.3-1 5-.3 1.6-.9 3.7-1.4 4.6-.4.9-.5 1.9-.2 2.3.3.3.1.6-.6.6s-1 .4-.7.9c.3.5-.3 3.8-1.3 7.3-1.1 3.4-2.2 7.9-2.6 9.8-.6 3.9-1.7 20.6-1.9 28.5-.1 2.7-.5 5.3-1.1 5.7-.7.5-.7.8 0 .8.6 0 1.1 2.3 1.2 5 .5 9.5 6.5 18.3 15.3 22.3 6.7 3.1 18.1 3 23.7-.2 2.5-1.4 4.3-3.3 4.5-4.5.5-3.5-1.7-10.8-3.8-12.3-1.6-1.1-1.8-2.5-1.7-8.1.2-5.8.8-10.7 1.3-10.7.1 0 .3-1.5.6-3.3.2-1.8 1.5-6.8 2.9-11s2.5-8.2 2.5-8.9c0-.7.5-1.3 1-1.3s.9-.3.8-.8c-.3-1.4 1.4-8.2 2.3-8.7.4-.3.6-1.2.2-2-.3-.8-.1-1.5.5-1.5.5 0 1.3-1.2 1.6-2.8.9-3.5 5.2-11.8 8.5-16.2 3.5-4.7 17.6-18.4 18.3-17.8.2.1 1.9-.4 3.8-1.2 3.1-1.1 4.7-1.3 8.5-.7 2 .3 3.5 3.7 3 6.4-.3 1.5-.7 4.1-1 5.6-.9 4.8-4.3 11-8.5 15.4-2.1 2.4-4.4 4.3-5 4.3-.5 0-1 .4-1 1 0 .5-.7 1-1.5 1s-1.5.5-1.5 1.1c0 .5-.4.8-.9.5-1.2-.8-4.4 2.3-5.9 5.6-2.1 5 .1 7.7 7.8 9.5 3.4.8 19 .2 19-.7 0-.3.8-.6 1.9-.7 1-.1 3.5-.8 5.5-1.7 2-.8 3.9-1.5 4.2-1.5.2 0 1.1-.6 1.8-1.3.8-.7 2.6-2.2 4.2-3.3 1.5-1.1 3.5-2.8 4.3-3.8.9-1.1 2.8-3.2 4.2-4.9 1.4-1.7 3.4-4.6 4.5-6.7 1-2 2.3-3.9 2.9-4.3.5-.4.6-.8.2-.8-.4 0-.3-.9.3-2.1 2.2-4 2.2-7 .1-7.6-1.7-.4-2.7-4.3-1.1-4.3.6 0 .4-14.6-.3-17-1.8-6.4-6.2-11.8-13.2-16.2-10.3-6.4-27.2-7-37.5-1.2-3.5 1.9-18.7 16.4-17.3 16.4.5 0 .1.6-.7 1.3-.9.7-3 3.6-4.9 6.4-1.8 2.9-3.4 5.3-3.5 5.3 0 0-.1-2.9-.2-6.4-.2-11.9-5.8-21.2-15.2-25.2-3.7-1.5-14.8-2.5-17.4-1.4zM1286 513.2c-5.3.9-14 4.7-14 6.1 0 .6-.3.7-.7.4-.4-.4-2 .6-3.7 2.2-13.7 13.2-17 16.7-19.3 20.2-1.4 2.2-2.7 3.8-2.8 3.7-.1-.2-.5-2.8-.9-6-1.3-13.1-8.4-22.3-18.6-24.5-3.4-.7-10.6-.7-11.7 0-.7.5-1.3.4-1.3-.2 0-.6-.6-.8-1.4-.5-1 .4-1.2 2.1-1 6.7.5 7.9.4 14.5-.1 17.7-.3 1.4-.7 4.1-1 6-.3 1.9-2.1 8.9-4.1 15.5-1.9 6.6-3.7 12.7-3.9 13.5l-2 8c-.9 3.6-1.8 7.6-2.1 9-.3 1.4-.7 3.2-1 4.1-.7 2.5-1.4 8.6-1.8 16.1-.2 3.7-.7 7.2-1.1 7.7-.3.6-.3 1.1.2 1.1.4 0 .9 2.4.9 5.3.1 2.8.5 6.8.8 8.7.4 1.9.9 5.3 1.2 7.5 1 7.6 7.4 15.7 13.3 17.2 1.4.3 3.1.9 3.6 1.3 1 .7 14.4.6 17.6-.2 1-.2 2.3-.9 3-1.4.8-.6 2.2-1.4 3.1-1.7 3.2-1.1.7-13.7-2.7-13.7-2.4 0-4-7.3-2.2-9.8.6-.7.6-1.2 0-1.2s-.9-1.2-.7-2.8c.2-1.5.6-5 .8-7.7.6-6.1 1.5-12.4 2.2-14.7.3-.9.7-2.6.9-3.9.2-1.2 1-3.8 1.7-5.8s1.3-3.8 1.3-4.1c.7-2.6 6-13 6.7-13 .5 0 .7-.4.3-.9-.3-.5.2-1.6 1-2.4.8-.9 1.5-1.9 1.5-2.4 0-.4 1.8-3.4 4-6.6 2.2-3.1 4-6.2 4-6.7 0-.6.5-1 1-1 .6 0 1-.5 1-1.2 0-.6 1.8-2.9 4-5 2.2-2.2 4-4.3 4-4.7 0-1.3 5.7-4 9.3-4.5 2.5-.3 4 .1 4.9 1.2 1.6 1.9 1.6 9.6 0 15.7-.5 2.2-1 5.3-1.1 7-.1 3.3-.4 4.9-1.4 8-.3 1.1-.8 3.1-1.1 4.5-.3 1.4-1.2 5.4-2.1 9-1.1 4.3-1.7 11.3-1.7 21-.1 8-.5 15.1-1.1 15.7-.5.7-.6 1.3-.1 1.3s.9 1.9.9 4.2c0 2.4.2 4.7.5 5.3.2.5.5 1.3.6 1.7.1.5.3 1 .4 1.3.3.6.7 2.1.9 3.3 0 .5 1 2 2.1 3.3 6.9 8.4 12.7 11.3 22.5 11.3 7.3-.1 13.3-.8 14.3-1.8.3-.3.8-2.7 1.2-5.3.7-4.6.6-4.9-2.9-8.2l-3.6-3.4v-9.9c0-5.4.2-9.8.5-9.8s.6-1.5.6-3.3c.1-1.7.5-5 .9-7.2s.8-4.6.8-5.3c0-.6.3-1.2.6-1.2s.7-1.4.8-3c.5-7.8.7-9 1.4-9 .4 0 .6-.8.5-1.7-.2-1.5 1-7.6 3.9-19.8 2-8.1 2.5-12.1 2.6-20.2 0-7.4-1.9-18.3-3.3-18.3-.5 0-.8-.6-.8-1.3 0-3.6-6.2-9.8-13.2-13.3-7.8-3.9-10.7-4.5-17.8-3.2z"/><path d="M643.6 516.7c-.1.1-1.8.5-3.7.7-1.9.3-4.7 1-6.4 1.6-1.6.6-3.2 1.1-3.5 1.2-1.7 0-10 4.2-10 5.1 0 .6-.3.8-.6.4-.9-.9-11.3 7.8-14.8 12.4-1.7 2.1-3.4 3.9-3.8 3.9-.4 0-.8.7-.8 1.5 0 .7-.8 1.9-1.7 2.4-1 .6-1.4 1.1-1 1.1.4 0-.4 1.6-1.9 3.5-1.4 1.9-2.2 3.5-1.8 3.5.5 0 .4.4-.2.8-.9.5-5.3 9-5.9 11.2 0 .3-.9 3-2 6s-2 5.8-2.1 6.2c-.1.5-.3 1-.4 1.3-.3.6-.4.8-2 8-.8 3.6-1.3 13-1.4 23.3-.1 14.2.2 17.9 1.5 20.7.9 1.9 1.4 3.6 1.1 3.9-.3.4.1.6.8.6.7 0 1.1.3.7.6-1 1.1 5 9 9.6 12.6 6.8 5.4 18.6 10.6 23.5 10.2 1.2-.1 2.2.2 2.2.6 0 .4 1.8.7 4 .6 2.2 0 4-.3 4-.6s1.2-.5 2.8-.4c1.5.1 3.9-.5 5.4-1.3 1.5-.7 3-1.3 3.3-1.2 1.3.2 10.2-4.7 12.9-7.1 6.1-5.1 11.5-10.7 11-11.2-.3-.3.2-.8 1.1-1.1.9-.4 1.5-.1 1.6.8.2 1.6.5 3.2.9 4 .1.3.3.8.4 1.2.1.5.5 1.4.9 2 .5.7.5 1.3.2 1.3-.4 0 0 .6.7 1.4.7.7 2.6 3 4.2 5s3.1 3.4 3.4 3.1c.3-.3 1.2.1 2.1.9.9.8 1.9 1.5 2.4 1.5.4.1.8.1 1 .2 5 1.7 17.7 1.7 20.8 0 4.6-2.5 9.3-14.1 5.7-14.1-.6 0-2.1-1.2-3.3-2.6-2.2-2.5-2.3-3.3-1.9-16.3.1-7.5.6-15 1-16.6.3-1.7.7-4.6.8-6.5 0-1.9.4-3.7.8-4 .4-.3.8-2 1-3.8.1-1.8.5-3.2.8-3.2.3 0 .5-1.2.4-2.8-.1-1.5.3-3.7.7-5 .5-1.2 1.1-3.4 1.4-4.7.5-2.3 1.2-5.9 2-9.5.2-.8.4-1.5.5-1.5.1 0 .3-.7.5-1.5s.6-2.6.9-4c1.9-8.1 2.2-11.5 2-18.6-.2-4.3-.5-9.3-.7-10.9-.9-7-6.7-15.5-10.7-15.5-1.1 0-2-.3-2-.8 0-.4-4-.7-8.9-.6-9.1.1-12.7 1.3-11.7 4 .3.7.1 1.6-.5 1.9-.5.4-.6 1.2-.2 1.8.7 1.2 1.3 13.7.7 13.7-.2 0-1.2-1.7-2.3-3.8-4.4-8.6-13.5-14.8-24.6-16.9-2.7-.5-10.5-.9-10.9-.6zm18.6 26.2c1.3.5 3.8 2.2 5.7 3.8l3.4 3-.1 12c0 6.6-.5 12.9-1 14-.6 1.1-1.2 4.7-1.3 8.1-.2 4.1-1.3 8.7-3.4 14.1-1.8 4.4-3 8.3-2.7 8.6.3.3 0 .5-.7.5s-1 .4-.7.9c.4.5.2 1.1-.2 1.3-.5.1-2.3 3-4.2 6.2-1.8 3.2-4.1 6.6-5.2 7.5-1 .8-1.8 2.1-1.8 2.8 0 .7-.3 1.3-.7 1.3-.5 0-2.8 1.8-5.3 4-6.1 5.5-7 6.2-7 5.6 0-.3-1.6.2-3.5 1-5.4 2.2-8.8 1.8-13.4-1.9-6-4.8-7.3-7-7.2-13 .1-9.1.9-22.7 1.5-25.5.3-1.5.8-4.2 1.1-6 2-12.4 13.9-32.6 24.2-41.2 8.3-6.9 16.4-9.5 22.5-7.1zM1140.5 517.8c-2.8 1.4-3 2.6-1.2 6.2 1 1.9 1.5 10.9.8 14-.1.3-1.7-2-3.7-5-4.5-6.7-6.6-8.8-12.4-12.1-4-2.3-5.5-2.5-13.5-2.3-15.1.3-23.3 2-29.5 6.1-1.4.9-2.6 1.6-2.8 1.4-.2-.1-1.2.7-2.1 1.8-1 1.2-2.2 2.1-2.7 2.1-1.1 0-10.4 9.8-10.4 11 0 .5-.7 1-1.5 1s-1.5.4-1.5.9-.6 1.6-1.3 2.3c-3.7 3.9-12.7 19.8-12.7 22.4 0 .8-.4 1.4-.8 1.4-.5 0-.9.6-.9 1.2 0 .7-1 4.6-2.2 8.7-3.3 10.7-3.3 10.6-3.5 22.6-.1 6.1-.6 11.6-1 12.3-.4.7-.4 1.2.1 1.2.4 0 .8 3.3.8 7.3.1 6 .6 8.3 3.4 14 3.1 6.5 12.6 17.6 15.4 18.1.7.1 2.7 1 4.6 2 3.2 1.7 6 2.5 10.4 2.9.9.1 1.7.4 1.7.7 0 .3 2.5.5 5.5.6 3 0 5.5-.2 5.5-.6 0-.3 1.4-.5 3-.4 1.7.1 3.2-.2 3.5-.7.3-.4 1.2-.6 1.9-.3.8.3 1.7.1 2.1-.5.3-.6 1.3-1.1 2.1-1.1 4 0 24.4-16.1 24.4-19.2 0-.5.5-.8 1-.8.6 0 1 1 1 2.2.1 5.6 8.3 17.8 12 17.8 1 0 2 .4 2.2 1 .2.5 1.7 1.1 3.3 1.3 1.7.2 3.5.5 4 .8 1.5.7 11.6.4 14.7-.5 3-.9 6.5-6 7.3-10.5.4-2.3 0-3.2-2.3-4.7-5.6-3.6-6.2-4.9-6.2-11.4 0-5.2.7-19.5.9-19.5.2 0 .4-.7.6-1.5.2-.8 1.3-4.8 2.4-8.7 1.2-4 2-7.6 2-8-.1-.5-.1-1 .1-1.3.2-.5.8-3.9 1.3-6.8.1-.9.5-2.2.8-2.7.4-.6.5-1.8.4-2.8-.2-.9.1-1.7.6-1.7.6 0 .8-.3.5-.8-.2-.4.2-3.2 1-6.2 1.5-5.3 1.8-6.6 2.9-11 1.2-4.9 1.5-6.7 1.6-12 .1-3.2-.1-6.2-.5-6.8-.4-.7-.2-2.1.4-3.2.6-1.1.7-2 .2-2-.5 0-.8-1.4-.7-3 .4-6.7-6.3-16.5-12-17.6-6.2-1.1-18.5-.9-21 .4zm-16.3 27.8c2.7 1.6 4.9 3.8 5.3 5.1.8 3.5.4 20.8-.7 25.1-.5 2-1 5.8-1.2 8.4-.4 5.2-2.3 11.6-7 22.8-1.7 4.1-2.9 7.7-2.8 7.9.2.2 0 .7-.5 1-.4.3-2 2.2-3.5 4.2-5.1 6.9-16.7 16.8-18.9 16.2-.5-.2-.9.1-.9.5 0 .5-.6.9-1.2 1-.7 0-3 .4-5 .7-2 .4-4.8.5-6.2.1-3.1-.8-7.3-4.9-8.8-8.5-1.3-3.1-1.7-12.1-.6-12.1.5 0 .4-.9-.2-2-.8-1.4-.8-2 0-2 .6 0 .8-.5.3-1.3-1-1.6-1-3.8-.1-5.8.4-.9.2-2.1-.4-2.7-.9-.9-.9-1.2-.1-1.2.7 0 1.2-.8 1.2-1.8-.1-3.8 1.2-11.5 2.2-13.3.5-1.1.7-2.4.4-2.9-.3-.6-.1-1 .4-1 .6 0 1-.3.9-.8-.1-.4.6-2.4 1.5-4.6.9-2.1 1.7-4.2 1.7-4.7s.5-.9 1.2-.9c.6 0 .9-.3.6-.6-.4-.3.5-2.2 1.8-4.2s3-4.6 3.7-5.6c4.4-6.8 12.5-14.8 17.8-17.7 6.6-3.5 12.5-3.3 19.1.7zM835.3 518.8c-2.9.4-3.4 2.4-1.6 5.8 1.5 3.1 2.4 15.4 1.1 15.4-.4 0-.8.7-.8 1.5s-.6 2.9-1.4 4.7c-2.2 5.1-2.9 7.2-2.7 8.2.1.4-.4 1.4-1 2.2-.6.8-.9 1.4-.5 1.4.3 0 .1 1.2-.4 2.6-.6 1.4-1.1 5.9-1.2 10-.1 5.5-.7 8.3-2.1 10.7-1.4 2.1-2 4.6-1.8 7.4.1 2.5-.6 6-1.7 8.7-1.1 2.4-1.8 4.7-1.4 5 .3.3.1.6-.5.6-.5 0-1 .6-1 1.2 0 4.1-9.5 22.2-15.8 30.2-3.1 3.9-11.1 9.3-12.2 8.2-.3-.3-1.1-.2-1.7.4-1.7 1.3-5.8-1-7.3-4-2.2-4.7-3-14.2-1.8-21 .3-1.9 1-6 1.5-9s1.2-7.1 1.6-9c.3-1.9.8-4.6.9-6 .2-1.4.4-2.6.5-2.8.1-.1.4-.7.5-1.2.1-.6.3-1.1.5-1.3.2-.2.6-2 1.4-5.7.3-1.4.8-3.6 1.1-5 1-4.5 1.4-6.4 1.9-11.5.3-2.8.8-6.6 1.1-8.5.8-6.3.8-13.4 0-17.5-1.2-5.5-1.2-5.4-1.5-6-.1-.3-.3-.8-.4-1.3-.4-1.6-3-5.7-5-7.7-2.6-2.6-9.5-4.6-16.1-4.7-10.1-.1-9.3-1-9 9.4.1 5.1 0 9.7-.4 10.3-.3.5-.6 1.6-.7 2.3-.2.8-.6 2.1-1 3-.9 2.1-1.1 2.7-2.4 8.2-.7 2.5-1.4 5.2-1.7 6-.3.8-.7 2.8-.8 4.5-.2 1.6-.6 4-.9 5.2-.3 1.3-.8 3.1-1 4.1-.2 1-1.6 5.7-3.1 10.5-3 10-3.4 11.8-4 19-.2 2.9-.4 5.2-.5 5.2-.9 0-.3 27.1.6 30.7 1.2 4.8 5 11.8 6.3 11.8.4 0 1.6.9 2.8 1.9 3.2 3 10.1 6.2 13.9 6.4 1.9.1 3.4.5 3.4.8 0 .5 14.2.4 14.8-.1.1-.2.5-.3 1-.5.4-.1 2-.5 3.6-1 3.6-1 12.6-6.5 12.6-7.6 0-.5.7-.9 1.6-.9.8 0 1.2-.5.9-1-.3-.6-.2-1 .4-1 .6 0 2.2-1.2 3.6-2.7l2.5-2.8.1 2.5c0 1.4 0 5-.2 8-.5 11.1.1 23.4 1.1 24.7.2.2.3.7.4 1.2 0 .5.4 1.3.9 1.7.4.4.7 1.4.8 2.3 0 .9 1.7 4.1 3.7 7.1 5.4 8 13.6 11.8 27.2 12.4 1.9.1 4-.1 4.5-.3.6-.3 1.6-.6 2.3-.7 2.3-.4 9.7-4.4 12.3-6.8 3.8-3.3 10.1-12.7 9.5-14.2-.3-.7 0-1.4.5-1.6.6-.2 1.3-2.9 1.6-5.9.5-5.2.3-5.8-2.2-7.7l-2.6-2.1-4.3 2.1c-5.2 2.5-10.3 1.9-13.9-1.5-2.2-2.1-2.3-2.9-2.2-14.7.1-6.9.5-14.5 1-17s.8-4.8.7-5.3c-.1-.4.3-.7 1-.7.6 0 .9-.3.5-.6-.3-.3-.1-1.7.4-3.1.5-1.3 1.2-4.5 1.5-7.1.7-6.4.8-6.6 1.9-7.4.6-.5.6-.8-.2-.8-.9 0-.9-.8-.2-3 .6-1.7 1.5-3 2-3s.9-.9.9-1.9c0-1.1.4-2.2.8-2.5.4-.2.7-3.1.7-6.3-.1-3.2.2-6.3.5-6.8 1-1.5 4.2-13.6 4.5-17 .2-1.7.4-3 .5-3 .1 0 .3-1.1.5-2.5.1-1.4.6-5 1-8 .8-6.3.8-7.4.1-11.5-.9-5.6-1.7-8.8-2.7-10.7-1.8-3.4-8.1-9.8-9-9.2-.5.3-.9 0-.9-.7s-.3-.9-.7-.6c-.3.4-1.1.2-1.8-.3-1.2-1-13.3-1.9-17.2-1.2zM358.6 816.8c-.2.1-3.2.4-6.7.6-3.5.2-8.4.7-10.9 1.1-2.5.3-5.2.7-6 .8-.8.2-1.9.5-2.5.9-.5.3-3 1.2-5.5 1.9s-4.7 1.3-5 1.4c-.3.1-1.8.7-3.5 1.4-1.6.7-3.1 1.2-3.2 1.2-.9-.2-18.2 9.4-20 11.2-1.3 1.1-2.3 1.8-2.3 1.5 0-.4-1.4.6-3.1 2-7.7 6.7-17.9 17.6-17.9 19.3 0 .5-.3.9-.8.9-.7 0-2.1 2.2-4.4 7.2-.7 1.6-1.5 2.8-1.9 2.8-.7 0-1.9 3.6-1.8 5.4.1.5-.4 1.2-.9 1.5-1.1.7-4.4 10.4-4.8 14.1-.2 1.4-.6 4.7-1 7.5-1.4 10.7-.8 30.8 1.1 38 3.2 12.8 8.1 19.8 14.9 21.6 6.5 1.8 7.6 1.9 10.1.9 1.3-.5 2.7-.5 2.9-.1.8 1.2 10.8.4 11.6-.9.4-.7 1-1 1.3-.8 1 .5 8.7-7.3 8.7-8.8 0-.8.3-1.4.8-1.4.4 0 .7-2.5.7-5.5 0-6.1-1.1-6.8-6.3-4.1-3.9 1.9-6.2 1.2-9.9-3-3-3.5-3.2-4.3-2.8-9.1.2-3 .7-5.9 1.1-6.4.3-.6.6-5.7.6-11.4 0-8.3.4-11.7 2.2-16.9 1.3-3.6 2.1-6.8 1.8-7.1-.3-.3 0-.5.7-.5s1-.4.7-.8c-.2-.4.6-2.8 1.9-5.4 1.3-2.5 2.1-4.9 1.8-5.2-.4-.3-.1-.6.6-.6s1-.4.6-.9c-.3-.6.3-1.4 1.2-2 1-.6 1.4-1.1.9-1.1-.9 0 5.3-8.1 9.3-12 3-2.9 6.6-5.1 14.1-8.6 3-1.4 7.8-3.6 10.5-4.9 6.3-2.9 19.4-6.9 20.2-6.1.3.3 1.4.1 2.5-.5 5-2.7 24.9-3 34.1-.5 3.7 1 6.9 1.7 7.3 1.6.4-.1 1 .2 1.3.7.3.4 4 2.5 8.1 4.5 8.9 4.5 15.5 10.5 19.2 17.6 3.4 6.7 4.6 15.4 4.3 31-.2 8.1-.7 16-1 17.7-.4 1.6-.8 3.9-1 5-.2 1.1-.8 3.5-1.3 5.3-.6 1.8-1.2 3.6-1.3 4-.1.4-.6 1.8-1.2 3.2-.6 1.4-1.1 2.7-1.2 3-4.2 12.1-19.5 30.8-31.7 38.7-2.3 1.5-4.5 3.1-4.8 3.5-.3.3-1.8 1-3.3 1.3-1.5.4-2.7 1.1-2.7 1.6s-.6.9-1.4.9c-.7 0-3.1.8-5.2 1.7-2.2.9-4.1 1.7-4.4 1.8-.3.1-1.8.4-3.5.8-1.6.4-4.1 1-5.5 1.3-1.4.3-4 .7-5.8.8-1.7.2-3.5.6-3.9.9-.3.4-1.2.2-1.9-.4-1.1-.9-1.1-1.7.1-4.7 1.2-3 4.5-16.1 7.1-27.9.2-1.2.9-3.4 1.4-4.8.5-1.4.8-2.5.6-2.5-.2 0 .2-2 1-4.5.7-2.5 1-4.5.7-4.5-.3 0 0-.7.7-1.5.6-.8.9-1.9.6-2.4-.4-.5-.2-1.2.3-1.6.5-.3 1-1.3.9-2.3 0-.9.3-5.1.8-9.2.9-9.2.9-22.1-.1-27.5-.7-4-3.6-10.7-5.8-13.6-1.7-2.2-6.6-5.3-9-5.6-1.1-.2-2.5-.7-3.1-1.2-2.3-1.7-13-1.3-17.7.7-5.6 2.4-12.3 9.9-13.7 15.2-1 3.9-.9 4 1.1 3.3 6.7-2.2 11.6.9 11.8 7.6.4 10 .1 14.4-1.7 23.6-.3 1.6-.7 3.4-.8 4-.1.5-.4 1.4-.7 2-.3.5-.5 2.1-.5 3.5.1 1.4-.2 2.7-.6 3-.4.3-.9 1.9-1.2 3.5-.2 1.7-.5 3.1-.6 3.2-.2.2-.4.7-.5 1.3-.1.5-.3 1.1-.5 1.2-.1.2-.3 1-.5 1.8-.1.8-1.1 4.4-2 8-.9 3.6-1.9 7.2-2 8-.2.8-.4 1.5-.5 1.5-.1 0-.3.9-.5 2s-1.1 4.7-2 8c-.9 3.3-1.8 6.7-2 7.6-.2.8-1 3.9-1.9 6.7-.8 2.9-1.5 5.4-1.6 5.7 0 .3 0 .6-.1.7 0 .2-.2 1-.4 1.8s-1.3 5.3-2.5 10-2.2 9.3-2.3 10.2c-.1 1-.5 1.8-1 1.8-.4 0-.6.4-.3.9.3.4 0 2.3-.6 4.2-1.9 5.7-2 6.3-2.4 8.9-.1 1.4-.5 3.6-.9 5-2.6 10.9-3.8 21.6-3.8 32 .1 10.1.9 19.9 1.7 20.7.3.3.6 1.5.6 2.5s.5 1.8 1.2 1.8c.6 0 .8.3.5.7-1.1 1 6.2 10.3 8.1 10.3.6 0 1.2.4 1.4 1 .5 1.6 11 3.8 16.1 3.4 13.1-1.1 18.8-8.7 12.2-16.1-2.7-3.1-3.2-4.5-3.5-9.7-.6-10-.3-23.9.4-27.6.5-1.9 1-5 1.3-6.8.3-1.7.9-3.2 1.5-3.2.5 0 .7-.4.4-.9-.3-.4-.1-2.3.5-4.2.5-1.9 1.2-4.1 1.4-4.9.2-.8.8-3.5 1.4-6 .6-2.5 1.7-6.5 2.4-9s1.2-5.7 1.1-7.2c-.2-1.6.3-2.9 1.2-3.2 1.7-.6 4.4.3 4.4 1.5 0 .5.6.9 1.3.9 2.4.1 14 10.7 21.2 19.5 1.7 2.1 4 4.9 5.3 6.4 1.3 1.4 3.3 3.9 4.5 5.4 1.2 1.6 2.7 3.4 3.3 4 .6.7 3.5 4.6 6.4 8.7 2.9 4.1 5.8 7.8 6.4 8.2.6.4.8.8.4.8-.7 0 1.1 2.5 4 5.5.6.8 1.2 1.7 1.2 2.2 0 .4 1.1 2 2.5 3.5s2.5 3 2.5 3.3c0 .7 1.3 2.4 5.2 6.6 1.5 1.6 2.5 2.9 2.2 2.9-.3 0 .5 1.1 1.8 2.4 1.3 1.3 5.2 5.7 8.8 9.7 5.9 6.6 10.1 10.7 18.5 18.4 1.7 1.5 5.9 4.8 9.5 7.3 3.6 2.6 6.7 4.9 7 5.2 1.5 1.8 19.3 9 22 9 1.1 0 2 .4 2 .8s1.2.7 2.8.6c1.5-.1 3.2.3 3.8.7.6.5 5 1.1 9.8 1.3 10.2.5 20.5-1.4 28.9-5.1 6.8-3.1 15-8.7 14-9.6-.3-.4 0-.7.8-.7 1.8-.1 7.7-8.1 9.7-13.1.8-2.2 1.8-3.9 2.1-3.9.9 0 .2-10-.9-13.5-1.2-3.6-6.1-9.1-9-10-1.1-.3-2-1.3-2-2.1 0-1.1.6-1.3 1.9-.9 1.1.3 2.2.1 2.6-.5.3-.5 1.3-1 2.2-1 2.9 0 15.4-8.2 20.5-13.5 2.2-2.2 7.8-10.1 7.8-10.9 0-.2.5-1.7 1.2-3.3 1.7-4 1.7-7.5 0-9.5-1.3-1.6-1.6-1.6-4.1 0-1.4.9-3.1 2.1-3.7 2.7-2.1 1.9-8.7 7-10.4 8-10.5 6.2-12.4 6.9-20.5 6.9-17.8 0-25.2-3.7-29.4-14.9-1.7-4.4-1.9-7.4-1.8-18.8.1-7.4.5-13.9 1-14.3.4-.4.7-.1.7.7 0 .9 1.6 2.9 3.5 4.6 1.9 1.7 3.5 2.9 3.5 2.7 0-.3 1.5.3 3.3 1.3 1.7.9 3.7 1.8 4.2 1.9.6.2 2.1.6 3.5.9 2.6.7 12.4.8 15 .2.8-.2 3.2-.7 5.3-1.2 2-.4 4-1.1 4.3-1.6.3-.5 2.1-1.6 3.9-2.3 4.6-1.9 11.4-9.3 14.6-15.8 2.5-4.9 4.1-8.5 4.3-9.8.1-.3.4-1 .8-1.6.4-.6 1-2.8 1.3-5 1-5.9 1.3-7.9 1.5-7.9.1 0 .3-2.4.4-5.3.1-2.8-.1-5.2-.4-5.2-.3 0-.6-1.4-.7-3-.5-6.9-8.5-18.6-14.5-21.1-1.6-.6-2.8-1.5-2.8-2s-.3-.8-.7-.7c-.5.1-3.2-.4-6.2-1.1-5.6-1.4-17-1.8-23.1-.8-15.5 2.6-23.5 5.3-29.3 9.8-4.4 3.4-13.7 14-13.7 15.6 0 .6-.9 1.8-2 2.8-1.1 1-2 2.4-2 3.1 0 .7-.7 1.9-1.5 2.8-.9.8-1.6 1.8-1.6 2.1 0 .2-.8 2.4-1.8 4.7-1 2.4-2.4 6.1-3.2 8.3-.8 2.2-1.6 4.2-1.9 4.5-.3.3-.6 1.4-.7 2.5 0 1.1-.4 3.1-.8 4.5-.3 1.4-.8 4.1-1 6-.2 1.9-.4 3.5-.5 3.5-.5 0-1.2 6-1.4 11.7 0 3.8-.5 6.8-.9 6.8s-.3.9.3 1.9c.7 1.4.7 2.2 0 2.6-.6.4-.7 1.2-.3 1.8.9 1.4 1.2 3.2 1.5 7.4 0 1.8.5 3.3 1 3.3.4 0 .7.4.6.8-.4 1.2 4.4 11.2 5.4 11.2.4 0 .8.6.8 1.4 0 4.2 17.2 17.9 25.3 20.1.4.2.8.3 1 .5.1.1.9.3 1.7.5.8.2 3.3.7 5.5 1.2 2.2.6 4.8.9 5.8.7.9-.1 1.7.1 1.7.5 0 1 3.1.7 5-.4.8-.5 2.4-.9 3.6-1 2.1-.1 2.2.2 1.8 6.3-.5 7.3-3.2 11.8-9.4 15.7-4.6 2.9-14.1 5.2-20.5 5-5.2-.1-14.5-2.5-14.5-3.6 0-.4-1.1-1-2.4-1.3-1.4-.3-3.1-1.2-3.8-1.9-.8-.6-3.8-2.5-6.8-4.1-7.8-4.2-11.7-7.1-18-13.6-5.4-5.7-8.2-8.9-17.5-20.5-2.7-3.3-5.1-6.2-5.4-6.5-.3-.3-3-3.4-6-7s-6.2-7.2-7-8.1c-.9-.9-5-5.3-9.1-9.9-15.4-16.9-30.9-32-33-32-.5 0-1-.4-1-.9 0-1.1 3.5-2.1 7.3-2.1 1.5 0 2.7-.3 2.7-.8 0-.4 1-.7 2.3-.8 2.1-.1 6.6-1 7.7-1.5.3-.1 1-.3 1.5-.4.6-.1 2.4-.8 4-1.4 1.7-.7 4.7-1.9 6.8-2.7 2.1-.7 5.1-2.3 6.6-3.3 1.6-1.1 3.1-1.8 3.5-1.4.3.3.6.1.6-.5 0-.7.7-1.2 1.5-1.2s1.5-.5 1.5-1c0-.6.7-1 1.5-1s1.5-.5 1.5-1c0-.6.6-1 1.3-1 .6 0 3-1.5 5.2-3.3 5.3-4.3 18.5-17.8 18.5-18.9 0-.5.9-1.8 1.9-2.9 1.7-1.8 11.9-20.7 12.2-22.7.2-1.1 2.1-7 3.4-10.7.4-1.1.9-3.8 1-6 .7-9.2.9-18.1.4-19-.2-.6-.4-3.8-.4-7.2 0-3.5-.3-6.3-.7-6.3-.5 0-.7-.3-.6-.8.5-1.8-1.5-11.2-2.4-11.2-.5 0-.7-.4-.3-1 .3-.5.1-1.7-.4-2.7-.5-1-1.5-3.3-2.2-5.1-2-5.5-8.8-15.3-13.5-19.7-6.2-5.7-6.2-5.7-13.1-9.9-12.3-7.5-31.8-13.2-48-13.8-2.4-.1-4.3-.5-4.3-.8 0-.3-1.5-.5-3.2-.5-1.8.1-6.3-.1-10-.5-4.4-.3-6.8-.2-6.8.5s-.3.7-.8 0c-.6-.9-6.9-1.5-7.6-.7zM554 960.7c0 .8.7 2.5 1.6 3.8.9 1.4 1.4 4 1.3 6.2-.3 3.4-.9 5.6-3.4 11.8-.5 1.1-.9 2.2-.9 2.5-.2 1.1-5.1 7.6-6.6 8.6-.8.7-2.7 2.3-4.2 3.7-3.6 3.4-12.9 6.8-20.2 7.4-5.5.5-5.9.4-5.2-1.3.4-1.1 1.9-5.1 3.4-8.9 4.2-11.4 11.2-22.7 17.4-28 3.4-3 9.8-6.8 9.8-5.9 0 .4.5.3 1-.2 1.5-1.5 6-1.2 6 .3zM808.2 886.5c-4.2 1.9-9.3 7.2-12.4 13.2-1.9 3.9-2.4 6.1-2.2 11.3.1 6.1 3.3 15.8 4.6 14.4.4-.3.9.4 1.3 1.5.9 3 7.4 6.1 11.6 5.6 4.2-.6 8.9-2.5 8.9-3.6 0-.5.4-.8.9-.7.4.2 2.4-1.7 4.5-4.2 2-2.5 4.1-5 4.6-5.7.6-.7 1.1-2 1.3-3 .1-1 .6-2.4 1.1-3.1.4-.7.8-3.9.8-7 .1-6.8-3-14.1-7.4-17.6-3.6-2.8-12.5-3.4-17.6-1.1zM1126.5 912.3c-.8.4-1.5.6-1.5.3 0-1-5.7 2-8.6 4.4-5.1 4.5-9 15.1-7.2 19.9.7 1.9 1.3 2.2 3.6 1.6 1.5-.3 2.8-1 3-1.5.3-.9 7-.2 9.4 1.1 1.8 1 4 7 2.8 7.9-.6.4-.6 6.9 0 9.5.1.5.1 1.2 0 1.5-.2.5-.4 1.8-1.4 11.5-.3 3.3-.8 6.9-1 8-.2 1.1-.7 4-1 6.5-.3 2.5-.8 5.6-1 7-.3 1.4-.7 4.1-1 6-.3 1.9-.8 4.8-1.2 6.5-.3 1.6-.7 3.9-.9 5-.4 2.3-1.6 8.3-2 10.5-.2.8-.4 1.5-.5 1.5-.1 0-.3 1.1-.4 2.5-.2 1.4-.8 4.2-1.5 6.3-.7 2.1-1.4 4.4-1.5 5-1.4 6.5-6.3 17.5-9 20.2-.8.8-2.3 2.6-3.3 3.9-2.7 3.4-8.8 6.4-11.8 5.8-3.6-.6-5.2-3.6-6.1-10.7-.8-7-.8-6.5.1-13 .4-2.8.7-5.8.7-6.8-.1-.9.3-1.7.8-1.7.4 0 .8-1 .8-2.3.1-4 .9-9.4 1.5-10.4.3-.5.7-2.6.9-4.6.1-2.1.5-3.7.8-3.7.3 0 .6-1 .7-2.3.1-2.4.8-5.8 1.8-9.7.4-1.4.8-3.4 1-4.5.2-1.1.4-2.1.5-2.3.2-.1.4-.7.5-1.2.1-.6.3-1.1.5-1.3.2-.2.5-1.7 1.5-6.7 1.1-5.5.7-17-.6-18.6-.6-.8-.8-1.4-.5-1.4.4 0 .2-.6-.3-1.3-.6-.6-2.2-2.7-3.7-4.4-1.5-2-4.1-3.7-6.4-4.3-4.1-1.1-19.3-1.5-20.8-.6-.5.3-.8 4.5-.7 9.3.1 6.9-.4 10.2-2.2 15.4-1.2 3.6-2.4 7.5-2.6 8.5-.1 1-.6 2.5-1 3.1-.5.7-.6 1.3-.3 1.3.2 0 0 1.5-.5 3.2-.6 1.8-1.2 4.6-1.4 6.3-.3 1.6-.7 4.1-1 5.5-.6 2.4-.8 3.5-2 9.7-.3 1.6-.8 3.7-1 4.8-.2 1.1-.6 3.1-.9 4.5-.3 1.4-.8 3.6-1.1 5-.3 1.4-.7 3.6-1 5-.3 1.4-.7 3.6-1.1 5-.3 1.4-.6 4.7-.6 7.5 0 13.9-19.9 26.2-25.2 15.5-.4-.8-1.5-3-2.5-4.8-2.3-4.5-1.9-16.5.9-23.8.5-1.2.6-2.5.3-2.8-.4-.3-.2-.6.3-.6s1-.8 1.1-1.8c.1-2.3 1.1-7 2.3-10.7.5-1.7 1.2-5 1.5-7.5.3-2.5 1.1-6.2 1.6-8.4.6-2.1.8-4.1.5-4.4-.3-.3-.1-1.1.5-1.9.6-.7.9-1.3.6-1.3-.3 0-.1-1.7.4-3.8 2-8.5 2.4-11 2.3-18.2-.1-9.4-.5-11.5-3.2-16.7-2.9-5.5-8.9-10-14.7-11-5.2-.9-15.7-.7-16.4.2-1 1.2-.8 2.5 1.3 8 1.3 3.6 1.3 7 .1 14-.2 1.1-.4 2.1-.6 2.2-.1.2-.2.7-.3 1.2 0 .5-.4 1.3-.8 1.7-.5.4-.8 1.6-.8 2.6s-.4 1.8-.8 1.8-.8 1-.9 2.2c-.1 1.3-.4 3.4-.8 4.8-.3 1.4-.8 4.1-1 6-.1 1.9-.5 4.2-.9 5-.3.8-1.5 4.9-2.6 9-1.2 4.1-2.3 7.9-2.4 8.5-.2.5-.6 1.7-.9 2.5-1.9 4.5-3.1 18.2-3.2 35.6 0 11.6.2 13.4 1.9 15.3 1.1 1.2 1.6 2.1 1.2 2.1-1.1 0 4.9 8.2 7.7 10.7 5.6 4.8 8.7 6.3 13.5 6.6 1.2 0 2.2.4 2.2.7 0 1.5 15.8.1 20.6-1.8 5.6-2.1 14.8-7.9 18.6-11.7l2.5-2.5 3.6 4.1c2.1 2.2 3.7 3.7 3.7 3.2 0-.4.4-.3.8.2 1.5 2.3 6.9 5.3 12 6.8 2.8.9 5.2 1.3 5.2 1 0-.3.6-.1 1.3.4 1 .7 6.6.8 15.7.3 2.4-.2 11.2-4.3 14-6.5 4.7-3.9 11.9-11.6 12.5-13.5.4-1.1 1.1-2 1.6-2s.9-.4.9-1c0-.5 1.5-3.4 3.4-6.3 1.9-3 5.2-8.9 7.3-13.3 2.1-4.3 4.3-8.2 4.8-8.6.6-.5.6-.8.1-.8-.6 0-.5-.5.2-1.2s1.2-1.7 1.2-2.4c0-.6.8-2.9 1.7-5 .9-2.2 1.7-4.1 1.8-4.4 0-.3.6-1.5 1.3-2.8.7-1.2 1-2.2.6-2.2-.3 0-.1-.7.6-1.5s1-1.5.6-1.5c-.3 0 0-1.5.7-3.3.8-1.7 1.4-3.4 1.4-3.7 0-.3 1.1-3.9 2.3-8 1.3-4.1 2.4-8.5 2.5-9.7.2-1.2.6-2.7 1-3.3.4-.6.9-2.6 1.2-4.3.3-1.8.9-4 1.4-5 .6-.9.7-2.1.4-2.6-.3-.5-.2-1.1.3-1.3.4-.1 1.7-2.8 2.8-5.8 3.1-8.4 2.3-24.8-1.6-35.4-2-5.3-9.1-13.6-11.7-13.6-.6 0-1.3-.4-1.5-.9-.1-.6-1.6-1.2-3.3-1.5-1.6-.2-3-.5-3-.6 0-.7-10.8-.4-12 .3zM728.6 925.7c-.4.4-1.9.8-3.4.8-3.5.1-13.8 5.1-14.6 7.1-.3.8-1 1.2-1.6.9-.5-.3-1-.2-1 .3s-.8 1.8-1.7 3c-4.6 5.3-5.3 6.3-5.3 6.9 0 .4-.9 2.6-2.1 5-1.1 2.4-2.2 4.9-2.3 5.5-.1.7-.9 2.9-1.8 4.8-2.1 4.5-2.6 6.5-3.3 12-1.1 10.1-1.5 11.7-4.5 18.5-2.1 4.9-3.3 7.8-3.5 8.7-.2.5-.4 1-.5 1.3-.1.3-.4.9-.5 1.5-.1.5-.4 1.2-.5 1.5-.1.3-.3.8-.4 1.2-.1.5-1 3.5-2 6.8s-1.9 6.7-2.1 7.6c-.2.9-.8 2.5-1.4 3.5-2.3 4.1-5.1 11.7-4.6 12.4.3.5 0 1-.5 1.2-.6.2-1.3 1-1.5 1.8-.7 3.5-1.8 6-2.4 6-.3 0-1.3 1.5-2 3.2-2 4.4-4.9 8.6-9.5 13.6-3.8 4-5.5 4.3-5.9 1.1-.2-.8-.5-1.9-.8-2.4-.3-.6-.4-5.3-.2-10.5.3-12.8.6-15 1.5-15 .4 0 .7-.3.6-.8-.3-1 2.3-14.5 3.1-15.7.3-.6.7-1.9.8-3 .8-5.2 2-11 2.3-11 .1 0 .3-1.1.5-2.5.1-1.4.6-3.6.9-5 .8-3.1 1.4-6.3 2.1-11.5.4-2.2.9-4.9 1.2-6 .9-2.9.9-15.5.1-15.5-.5 0-.8-1-.8-2.3 0-2.6-2.1-7.7-3.2-7.7-.5 0-.8-.5-.8-1 0-3.1-10.8-9.5-14.7-8.7-1.3.2-2.5.1-2.7-.2-.4-.5-8.5-.6-11.7-.2-.3.1-.6 5.2-.6 11.3.1 6.2-.3 12.9-.7 14.8-.4 1.9-.9 4.8-1.1 6.3-.3 1.6-.7 3.3-1.1 3.8-.3.5-.8 2.1-1 3.6-.3 1.5-1 3.3-1.6 4-.6.7-.8 1.3-.4 1.3.3 0 .1 1.2-.5 2.7-1.8 4.7-2.5 8.8-3.4 19-.2 2.9-1.1 6.6-2 8.2-.8 1.7-1.5 3.7-1.5 4.6 0 .8-.4 1.5-.8 1.5-.5 0-.9.6-.9 1.2-.1.7-.5 3.3-.9 5.8-1.2 7.2-.7 31.1.6 32.7.2.2.3.6.4 1 .3 1.3 4.5 8.7 5.9 10.5.8 1 1.9 1.8 2.6 1.8.6 0 1.1.4 1.1 1 0 1.2 7.3 5 9.8 5 1 0 2.2.3 2.6.7.4.4 4.5.8 9.2.8 9 .1 11.5-.9 18.4-7.2 1.4-1.3 2.8-2.3 3.2-2.3.5 0 .8-.5.8-1.1 0-.7.8-1.9 1.8-2.8 1-.9 3-3.6 4.5-6.1 1.5-2.5 2.7-4.1 2.7-3.6 0 .5 2.5-2.6 5.5-6.7 3.1-4.2 5.6-7.9 5.5-8.2 0-.3.4-1.1 1-1.8 3.9-4.6 5-6.2 5.5-7.8.4-1.1 1.1-1.9 1.6-1.9s.9-.5.9-1c0-1.5 4.3-10.5 5.2-10.8.4-.2.8-.8.8-1.4 0-1.1 8-17.9 9-18.8.3-.3.7-1.4.8-2.5.2-1.1 1.3-3.7 2.3-5.7 1.1-2.1 1.7-3.8 1.4-3.8-.3 0 .1-1 .9-2.3.8-1.2 1.5-2.4 1.4-2.7-.1-.3.8-2.3 2-4.6 1.1-2.2 2.2-5.3 2.4-7 .2-1.6 1.2-4.6 2.2-6.7 2.2-4.5 10-12.6 11.8-12.3 3 .6 5.4 2.2 8.4 5.3 3.7 3.8 4 3.9 7.4 1.5 2.3-1.6 2.5-2.2 2.4-9.4-.1-4.3-.5-8.5-.9-9.5-.5-1-.9-2.4-1.1-3.2-.9-4.7-11-12.4-17.4-13.3-1.4-.2-3-.7-3.6-1-.6-.4-1.4-.4-1.8-.1zM1208.9 937.1c-16.1 10-23.2 20.6-26.6 39.9-1 5.8-1 17.3 0 21 .5 1.9 1.1 4.4 1.2 5.5.4 2.7 3.4 12.5 4.5 15 .5 1.1 2.5 6 4.5 10.9 3.9 9.8 3.9 9.6-2.5 12.7-2.9 1.5-17.3 15.9-16.5 16.7.3.3-.4 1.1-1.5 1.9-1 .7-2.9 3.1-4.1 5.3-1.3 2.2-2.7 4-3.3 4-.6 0-2.7 1.4-4.6 2.9l-3.5 2.9v12.1c-.1 6.7.2 12.1.6 12.1.4 0 1 1.5 1.3 3.3 1.2 6.3 12.2 15.4 20.7 17.3 13.1 2.8 25.9 2.4 34.2-1.1 2-.8 3.9-1.5 4.2-1.5.8.1 3.3-2 7.9-6.6 4.7-4.6 9.5-13.8 10.1-19.2.2-2 .4-3.7.5-3.7 1 0 1.4-18.4.5-22.5-.3-1.4-.8-3.9-1.1-5.5-.3-1.7-.7-3.5-.8-4-.2-.6-.6-2.4-1-4-.4-1.7-1.4-4.8-2.2-6.9-1.5-3.9-1-5.7 1.8-6.2.7-.1 4.3-.9 7.9-1.8 3.7-.8 7.8-1.7 9-2 1.3-.2 4.7-1 7.4-1.6 2.8-.7 8.7-1.3 13.2-1.4 5-.1 8.7-.7 9.7-1.6.9-.7 1.4-1.5 1.2-1.8-.3-.2-.1-1.3.5-2.3.7-1.3.6-1.9-.1-1.9-.6 0-.9-.4-.6-.9.3-.4-.1-1.6-.8-2.7-1.6-2.1-6.8-2.7-24.1-2.6-13.3 0-21.5.5-21.5 1.2 0 .3-1.6.7-3.6.8-2 .2-4.5.7-5.5 1.3-1.1.5-1.9.7-1.9.4 0-.3-.8-.1-1.9.4-2.3 1.3-3.8.1-7.9-6.2-3.1-4.6-3.2-5.2-3.6-18.1-.6-20.2 2.2-30.4 9.4-33.7 5-2.4 8.4-.4 11.5 6.4 2.1 4.4 2.3 6.3 2 12.7-.3 4.1-.5 8.4-.5 9.4-.1 2.7-4 11.6-5.1 11.6-1.4 0 2 6 3.4 6.1.6.1 2.5.3 4.2.5 1.6.2 3.4-.1 4-.6.7-.6 1.5-.7 1.8-.4.9.9 15.2-9.3 17.8-12.8 1.3-1.7 3-3.7 3.7-4.5.8-.7 1.2-2 .9-2.8-.3-.7 0-1.8.6-2.4.7-.5 1.4-2 1.5-3.3.2-2.2.8-5.7 1.2-6.8.7-1.9-.3-12-1.5-16.4-1.4-4.6-4.8-11.1-6.6-12.4-1.1-.7-1.9-1.9-1.9-2.6 0-2.2-4.7-6.6-10.2-9.3-4.9-2.4-6.3-2.6-19.4-2.8-13.7-.1-14.2 0-18.5 2.6zm-6.4 132.1c-.2 12.1-1 17.3-3.2 22.7-.8 1.8-1.2 3.9-1 4.5.7 1.8-3.4 6.4-7.7 8.4-3.4 1.7-4.2 1.8-6.7.5-3.8-1.9-5-5.3-3.8-10.9.3-1.7.2-3.9-.3-4.8-.6-1-.5-1.6.2-1.6.6 0 .9-.4.6-.8-.7-1.2 5-12.4 7.1-14 .9-.6 1.4-1.2 1-1.2-.4 0 2.3-3.2 5.9-7 3.7-3.9 7-7 7.4-7 .4 0 .6 5.1.5 11.2zM787.8 940.8l-2.7.3v10.7c.1 10.1-.1 11.6-1.3 15.2-1.7 4.9-4.2 13.6-4 14.3.1.4-.3 2.8-.9 5.5-.6 2.6-1.3 6-1.6 7.6-.2 1.6-1 4.1-1.6 5.5-.5 1.4-1.1 2.8-1.1 3.1-.1.3-.5 1.1-.9 1.7-.5.7-.6 1.3-.2 1.3.3 0 .1.9-.5 2.1-1.3 2.3-1.9 5-2.5 11.3-.2 2.2-.7 5.5-1 7.1-.6 3.1-1.3 16.2-1.6 26.5-.3 13.2 1.9 18.9 10 26.3 7.6 7 16.1 9.2 25.3 6.6 5.7-1.5 8.8-4.7 9.4-9.6.4-4.1.3-4.3-3.6-6.8-2.2-1.4-4.1-3.1-4.2-3.8 0-.6-.2-1.7-.2-2.2-.1-.6-.5-1.6-.9-2.2-.5-.7-.4-2 .1-3 .5-.9.6-2.9.2-4.4-.5-1.5-.7-2.9-.5-3.1.2-.2.6-2.7.9-5.6.3-3 .8-5.8 1.2-6.3.3-.5.7-1.8 1-2.9.2-1.1.6-2.9.9-4 .9-3.6 1.3-5.7 1.9-9.4.3-1.9 1.1-5.7 1.7-8.3.6-2.7 1.3-5.7 1.5-6.8.2-1.1.6-3.1.9-4.5.4-1.4.8-3.4 1-4.5.3-1.1.7-3 1-4.3.3-1.2.7-3 .9-4 .2-.9.9-3.7 1.6-6.2.6-2.4 1.3-5.6 1.4-7 .1-1.4.5-3.1.9-3.7.5-.7.4-2.1-.1-3-.5-1-.6-3.2-.2-4.8.3-1.7.3-3.7-.1-4.5-.4-.8-1.3-3.4-1.9-5.7-3.1-10.4-15.2-16.2-30.2-14.5zM913.7 940.6c-.1.1-2.9.4-6.2.7-3.3.4-7.6.9-9.5 1.2-5.4 1-19 5.7-19 6.7 0 .4-.6.8-1.3.8-1.3 0-8.6 7.5-12.2 12.4-1.1 1.6-2.5 3.4-3.2 4.1-1.8 1.9-10.4 18.5-9.6 18.5.4 0 .2.5-.5 1.2s-1.2 2-1.2 3-.4 1.8-.8 1.8c-.9 0-1.1.9-1.5 5.5-.1 1.4-.6 2.5-1.1 2.5-.5 0-.7.3-.3.6.3.3.2 1.6-.2 2.8-.5 1.2-1.1 4.1-1.5 6.6-.3 2.5-.9 5.6-1.2 7-.8 3.3-1.2 21.2-.5 22.5.2.5.6 2.5.8 4.3.5 4.6.7 5.6 1.3 6.2.3.3 1.7 3 3.2 6 4 7.9 9.4 14.2 16.3 18.8 7.8 5.2 11.2 6.9 16 7.7 2.2.4 4.5 1 5 1.4.6.3 3 .6 5.5.6s4.8.4 5.1.8c.3.5 1.3.2 2.1-.7.9-.8 1.8-1.3 2-1 .6.5 12 .6 16.3 0 1.7-.2 4.8-1.1 7-2.1s4.2-1.9 4.5-1.9c1.9-.4 11.3-7.8 15.1-11.9 8-8.5 11.6-18.6 8.4-23.7-.7-1.1-3.6.2-7.6 3.4-6.1 4.9-10.3 8.2-12.3 9.3-5.5 3.2-12.8 6.2-14 5.7-.8-.3-1.7 0-2.1.5-.3.6-1.1.8-1.7.5-.6-.4-3.6-.8-6.7-1-6.8-.5-7.5-.6-12.7-2.8-4.7-2-10-7.5-11-11.6 0-.3-.4-1.2-.7-2-.4-.8-.8-2.6-.9-4-.2-1.4-.6-3-1-3.5-1.4-2.3 0-16.3 2.3-22.2l1-2.7 1.8 3c1.7 2.7 7.1 8 7.1 6.9 0-.3 1 .1 2.3.9 2.2 1.5 12 3.5 15 3 12-1.7 13.6-2.1 15.1-3.4.7-.5 1.6-.7 1.9-.3.4.3.7.1.7-.5 0-.7.6-1.2 1.4-1.2 2.2 0 12.2-10.1 14.8-14.9 1.2-2.4 2.9-5.4 3.6-6.7 1.1-2 5.9-14.4 6.1-15.9.1-.3.1-.6.2-.8 0-.1.2-2.2.4-4.6.2-2.4.7-4.6 1-4.9.2-.3 0-1.1-.5-1.8-.6-.6-1-1.6-.8-2 .4-1.6-1.4-7.8-3.4-11.6-3.9-7.5-11.4-13.3-20.4-15.7-3.4-.9-17-2.1-17.7-1.5zm9.5 19.9c1 .4 1.5 1.1 1.2 1.6-.3.5-.1.9.4.9 1.8 0 2.1 5.7.7 11.8-1.7 7.2-5.5 14.2-10.4 19.2-4.4 4.6-15.4 10-20.7 10.4-2.2.1-4.5.6-5.2 1-.7.4-1.2.2-1.3-.6 0-1-.2-1-.6 0-.2.6-.9 1-1.4.7-.4-.3 0-2.7 1-5.3 2.6-6.9 3.1-8.2 2.8-8.5-.1-.1.6-1.3 1.6-2.7.9-1.3 1.7-3.2 1.7-4.2s.3-1.8.8-1.8c.4 0 1.9-2.1 3.4-4.8 3.6-6.4 10.8-13.5 16.8-16.5 5-2.5 6-2.7 9.2-1.2z"/></svg>