<svg xmlns="http://www.w3.org/2000/svg" viewBox="0 0 125.7 16.6"><path fill="#fff" d="M5 9.9a2.2 2.2 0 0 0 0 .3 2.2 2.2 0 0 1-.1.3l-.4 1.6a4.6 4.6 0 0 0 0 1.2 1.3 1.3 0 0 0 0 .3.7.7 0 0 0 .1.2l.1.1a.2.2 0 0 1 .1.1.1.1 0 0 0 0 .1c0 .2 0 .3-.3.4a1.2 1.2 0 0 1-.8.1 1.1 1.1 0 0 1-.7-.3 1.4 1.4 0 0 1-.4-1 5.6 5.6 0 0 1 0-1.3 11.1 11.1 0 0 1 .4-1.5l.3-1.2L4 7a14.2 14.2 0 0 0 .4-1.7 2.5 2.5 0 0 0 0-1C4.3 4 4 4 3.8 4s-.1 0-.1 0a.1.1 0 0 1 0-.1v-.1a2 2 0 0 1 .5-.5 1.2 1.2 0 0 1 1-.1 1 1 0 0 1 .7.4 1.9 1.9 0 0 1 .2 1A7 7 0 0 1 5.9 6l-.3 1.6-.1.5-.2.6a4.3 4.3 0 0 0 2-.6 4.7 4.7 0 0 0 1-1 4.2 4.2 0 0 0 .8-1.3 4.1 4.1 0 0 0 .2-1.6A3 3 0 0 0 9 3a2 2 0 0 0-.7-.8 4.3 4.3 0 0 0-.8-.4 3.1 3.1 0 0 0-1-.2 5.7 5.7 0 0 0-1.4.2 4.1 4.1 0 0 0-1.1.4 3.1 3.1 0 0 0-.8.5 3.7 3.7 0 0 0-.5.7.7.7 0 0 0-.1.2 4.7 4.7 0 0 0-.2.5l-.2.6a4.3 4.3 0 0 0 0 .9 3.4 3.4 0 0 0 0 .4 1.4 1.4 0 0 0 0 .5q.3.4.7 0H3v.1a.1.1 0 0 1 0 .1v.1a1.5 1.5 0 0 1 0 .3 1 1 0 0 1-.6.6 1.1 1.1 0 0 1-.5.1 1.2 1.2 0 0 1-.8-.2 1.6 1.6 0 0 1-.5-.9 5 5 0 0 1 0-.5 3.9 3.9 0 0 1 0-1 5.6 5.6 0 0 1 .1-.9 3.8 3.8 0 0 1 .3-.8 4.4 4.4 0 0 1 .8-1.1 4.6 4.6 0 0 1 1.2-1A5.9 5.9 0 0 1 4.7 1 8.9 8.9 0 0 1 7 .9a5.7 5.7 0 0 1 2.3.6 4.5 4.5 0 0 1 .8.6 3.2 3.2 0 0 1 .6.9 3.7 3.7 0 0 1 .3 1.2 5.2 5.2 0 0 1 0 1.5 5.4 5.4 0 0 1-.9 1.8 5.5 5.5 0 0 1-.6.7 4.3 4.3 0 0 1-.8.6 4.8 4.8 0 0 1-1 .5 6.4 6.4 0 0 1-1.3.3 7.5 7.5 0 0 1 1.1 1l1.2 1.3 1 1.2a7.1 7.1 0 0 0 .8.9 4.2 4.2 0 0 0 .8.5 3.2 3.2 0 0 0 .8.4 2.1 2.1 0 0 0 .8 0 1.3 1.3 0 0 0 .7-.3 1 1 0 0 0 .3-.4 1 1 0 0 0 0-.4l.1-.2a.5.5 0 0 1 .3 0 .9.9 0 0 1 .2.1 1.5 1.5 0 0 1 .3.2 1 1 0 0 1 .3.8 1.5 1.5 0 0 1-.3.7 2.4 2.4 0 0 1-.6.6 3 3 0 0 1-1 .4 2.7 2.7 0 0 1-1.3 0 4.2 4.2 0 0 1-1.5-.6A8.8 8.8 0 0 1 9 14.7a17 17 0 0 1-1.2-1.4l-1-1.4-1-1.2a3.7 3.7 0 0 0-.8-.8z"/><path fill="#fff" d="M13.8 13.6a4 4 0 0 1-1-.2 3 3 0 0 1-.8-.4 2.2 2.2 0 0 1-.5-.6 3.4 3.4 0 0 1-.2-.6 4 4 0 0 1 0-1.7 4.7 4.7 0 0 1 .5-1.7 3.8 3.8 0 0 1 .5-.7 3.3 3.3 0 0 1 .6-.5 3.2 3.2 0 0 1 .8-.4 3.5 3.5 0 0 1 1.1 0 2 2 0 0 1 .9.1 1.5 1.5 0 0 1 .6.7 1.7 1.7 0 0 1 .2 1 3.2 3.2 0 0 1-.4 1.3 1.7 1.7 0 0 1-.8.8 2 2 0 0 1-1 .2 1.5 1.5 0 0 1-.7-.3 1 1 0 0 1-.5-.4 4.7 4.7 0 0 0 0 .7 2.3 2.3 0 0 0 0 .7 1.3 1.3 0 0 0 .3.7 1.2 1.2 0 0 0 .8.3 1.8 1.8 0 0 0 .8-.1 3.8 3.8 0 0 0 .7-.4 4.1 4.1 0 0 0 .4-.3l.3-.2a.2.2 0 0 1 .1.3v.1a2.2 2.2 0 0 1-.7 1 3.4 3.4 0 0 1-.9.5 2.7 2.7 0 0 1-1.1 0zm1.2-6a.8.8 0 0 0-.7.2 1.8 1.8 0 0 0-.5.5 3.5 3.5 0 0 0-.4.7 6.4 6.4 0 0 0-.2.8 2 2 0 0 0 1-.2 1.7 1.7 0 0 0 .8-.8 2 2 0 0 0 .2-.6 1.1 1.1 0 0 0 0-.3.3.3 0 0 0-.2-.2zM17.1 13l.1-.2a1.7 1.7 0 0 1 .3-.4 4.8 4.8 0 0 1 .4-.5 4.6 4.6 0 0 1 .7-.5l-.4-1a4.5 4.5 0 0 1-.2-1.2 3.5 3.5 0 0 1 .2-1.4 2.4 2.4 0 0 1 .9-1.2 2.5 2.5 0 0 1 .4-.2h.4a1.7 1.7 0 0 1 .6 0 2 2 0 0 1 .6.1 1.8 1.8 0 0 1 .4.4 1.6 1.6 0 0 0 .1.1 1.6 1.6 0 0 1 .1.2 1.9 1.9 0 0 1 .3 1 2 2 0 0 1-.2 1 2 2 0 0 1-.5.6 1.6 1.6 0 0 1-.7.3h-.1a.3.3 0 0 1-.3-.1.3.3 0 0 1 0-.3.2.2 0 0 1 .1 0 1.4 1.4 0 0 0 .2-.7 1.4 1.4 0 0 0 0-.6c-.1-.4-.3-.6-.4-.6a.5.5 0 0 0-.5.1 1.3 1.3 0 0 0-.2.7 3.3 3.3 0 0 0 0 1.1 1.5 1.5 0 0 0 0 .4 3.6 3.6 0 0 0 .4.6 5.5 5.5 0 0 1 1-.2 4.5 4.5 0 0 1 1.6 0 .8.8 0 0 1 .3 0 .8.8 0 0 1 .1.2.2.2 0 0 1 0 .2c0 .1 0 .2-.3.2H22l-.8.2a4.4 4.4 0 0 0-.9.2 7.1 7.1 0 0 1 .4 1.1 3.4 3.4 0 0 1 0 1.4 2 2 0 0 1-.2.7 1.7 1.7 0 0 1-.5.5 2.2 2.2 0 0 1-.7.3 2.3 2.3 0 0 1-1 0 2 2 0 0 1-.7-.2 1.4 1.4 0 0 1-.4-.3 1.4 1.4 0 0 1-.3-.7 3 3 0 0 1 0-.6 3.6 3.6 0 0 1 0-.4 3 3 0 0 1 .3-.4zm1.8-.7a5.8 5.8 0 0 0-.6.6 2.4 2.4 0 0 0-.5.9 1.8 1.8 0 0 0 0 .3.9.9 0 0 0 0 .3.3.3 0 0 0 .2.2.5.5 0 0 0 .5 0 1.3 1.3 0 0 0 .3-.3V14a2 2 0 0 0 .2-.9 7.3 7.3 0 0 0-.1-.9z"/><path fill="#fff" d="M29.2 3.8a.6.6 0 0 1 .3 0 1 1 0 0 1 .3.3.6.6 0 0 1 .1.4.6.6 0 0 1-.2.4 1.2 1.2 0 0 1-.6.3 5.2 5.2 0 0 1-.9.2 9 9 0 0 1-1 0H26l-.1.5a2.9 2.9 0 0 1 0 .3l-.1.3-.3 1-.3 1.3a3.3 3.3 0 0 1-.1.4l-.1.3-.3 1.6a5.2 5.2 0 0 0-.2 1.1 1.3 1.3 0 0 0 .1.4.7.7 0 0 0 .1.2.4.4 0 0 0 .1 0l.2.2a.1.1 0 0 0 0 .1v.2a1 1 0 0 1-.3.2 1.2 1.2 0 0 1-.4 0 2 2 0 0 1-.4 0h-.3a.8.8 0 0 1-.3-.2 1.4 1.4 0 0 1-.5-1 6.3 6.3 0 0 1 0-1.3 12.2 12.2 0 0 1 .4-1.5l.3-1.3.2-.5.1-.5.3-1 .2-.9h-1a4.3 4.3 0 0 0-.6 0h-.3a.3.3 0 0 1-.2 0A2 2 0 0 1 22 5a.5.5 0 0 1 .1-.4 1.1 1.1 0 0 1 .6-.3 4.7 4.7 0 0 1 1.3-.1h.6V3a2 2 0 0 0 0-.2.4.4 0 0 0 0-.2l-.1-.2a.3.3 0 0 1 0-.1v-.1a.5.5 0 0 1 0-.2.5.5 0 0 1 .3-.2 1 1 0 0 1 1 .2 1.3 1.3 0 0 1 .3.7 2.6 2.6 0 0 1 .2.7 6 6 0 0 1 0 .9h1.1a6.8 6.8 0 0 0 1 0 1.7 1.7 0 0 0 .4-.2.6.6 0 0 0 .2 0v-.2a.4.4 0 0 1 .2 0z"/><path fill="#fff" d="M31.4 6.7h.2a2.3 2.3 0 0 1 .5 0 1.1 1.1 0 0 1 .4.1 1 1 0 0 1 .3.4 1.6 1.6 0 0 1 .1.7 3.2 3.2 0 0 1 0 .7l-.3 1.2-.2 1-.1.7a5 5 0 0 0 0 .6 1.4 1.4 0 0 0 0 .5.6.6 0 0 0 .1.2l.2.1a.4.4 0 0 1 0 .2l-.2.4a1 1 0 0 1-.6.1 1.4 1.4 0 0 1-.8-.2 1.3 1.3 0 0 1-.5-1 2.9 2.9 0 0 1-.8.8 2.1 2.1 0 0 1-1.2.4 2.3 2.3 0 0 1-1.1-.3 1.7 1.7 0 0 1-.7-.6 2.3 2.3 0 0 1-.3-.7 4.3 4.3 0 0 1 0-.8V11a1.3 1.3 0 0 1 0-.3 1.6 1.6 0 0 1 0-.3 6.4 6.4 0 0 1 .5-1.6 4.8 4.8 0 0 1 .8-1.2 3 3 0 0 1 1-.7 2.4 2.4 0 0 1 1-.2 2.3 2.3 0 0 1 .6.1 1.8 1.8 0 0 1 .5.3 1.3 1.3 0 0 1 .3.3l.2.4a2 2 0 0 0 0-.3 1 1 0 0 0 0-.1.6.6 0 0 0 0-.3.3.3 0 0 1 0-.2.2.2 0 0 1 0-.1zm-.6 2.7a1.3 1.3 0 0 0 0-.3 3 3 0 0 0 0-.4 1.7 1.7 0 0 0 0-.4 1 1 0 0 0-.3-.3.6.6 0 0 0-.4-.1 1.1 1.1 0 0 0-.6.2 2.5 2.5 0 0 0-.7.7 4.8 4.8 0 0 0-.6 1.1 5 5 0 0 0-.2 1.5 1.8 1.8 0 0 0 0 .7.8.8 0 0 0 .3.3.6.6 0 0 0 .3.2 1.3 1.3 0 0 0 .8-.3 2.8 2.8 0 0 0 .7-.8 4 4 0 0 0 .4-.8 5.8 5.8 0 0 0 .2-.6v-.4l.1-.3zM38.4 15.5a1 1 0 0 1-.6-.5 2.3 2.3 0 0 1-.3-.7 3.4 3.4 0 0 1 0-.9v-.7a3.1 3.1 0 0 1-.8.7 1.6 1.6 0 0 1-.9.2 2.1 2.1 0 0 1-.7-.1 2.3 2.3 0 0 1-.5-.3 1.3 1.3 0 0 1-.3-.4 2.7 2.7 0 0 1-.1-.4v-.8a9.5 9.5 0 0 1 .1-1.2l.3-1 .2-1a5 5 0 0 0 .2-.6 1.7 1.7 0 0 0 0-.6V7a.2.2 0 0 1 0-.1 3.7 3.7 0 0 1 .6 0 1.1 1.1 0 0 1 .6.2 1.2 1.2 0 0 1 .3.6 2.1 2.1 0 0 1 0 1.1c0 .6-.2 1.2-.3 1.6l-.2 1.2a2.2 2.2 0 0 0 0 .7 1.2 1.2 0 0 0 .1.3.3.3 0 0 0 .3.2.8.8 0 0 0 .5-.2 2.3 2.3 0 0 0 .5-.6 5.7 5.7 0 0 0 .4-.8l.3-.8V10l.2-.4a2.3 2.3 0 0 0 0-.2 1.2 1.2 0 0 1 0-.2V9l.2-.7.2-.5a2.1 2.1 0 0 0 0-.6l-.1-.2a.2.2 0 0 1 0-.2 3.7 3.7 0 0 1 .7 0 1 1 0 0 1 .5.2 1.1 1.1 0 0 1 .4.6 2.3 2.3 0 0 1 0 1.1l-.1.7-.2.6v.5l-.2.4-.1.7-.2.7a5.4 5.4 0 0 0 0 .9.8.8 0 0 0 0 .5.4.4 0 0 0 .3.2.5.5 0 0 0 .4 0 .3.3 0 0 1 .3-.1.3.3 0 0 1 .2.2.5.5 0 0 1 0 .2 1.8 1.8 0 0 1-.5 1 1.7 1.7 0 0 1-.7.4 2 2 0 0 1-1-.1zM47.5 8.6a2.5 2.5 0 0 1-.5 1 2 2 0 0 1-.7.6 2.2 2.2 0 0 1-1.6.2l-.2-.1a.3.3 0 0 1 0-.3.2.2 0 0 1 0-.1.3.3 0 0 1 .1-.1 1.6 1.6 0 0 0 .6-.4 1.4 1.4 0 0 0 .4-.6 1.4 1.4 0 0 0 .1-.4.6.6 0 0 0 0-.3.4.4 0 0 0-.2-.1.7.7 0 0 0-.3 0 1.7 1.7 0 0 0-.6.4 3.4 3.4 0 0 0-.7.8 6.5 6.5 0 0 0-.5 1.3A6.5 6.5 0 0 0 43 12v.2a.9.9 0 0 0 0 .3.5.5 0 0 0 .2.2v.2a.3.3 0 0 1 0 .4 1 1 0 0 1-.4.2 1.5 1.5 0 0 1-.6 0 1.2 1.2 0 0 1-.6-.3 1.2 1.2 0 0 1-.4-.7 3.2 3.2 0 0 1 0-1 7.8 7.8 0 0 1 .1-1.2l.3-1.1.2-1a6 6 0 0 0 .2-.7 1.5 1.5 0 0 0 0-.5v-.5h.6a1.3 1.3 0 0 1 .5.2 1 1 0 0 1 .4.5 1.9 1.9 0 0 1 .1 1 5.4 5.4 0 0 1 1-1.3 1.7 1.7 0 0 1 1.3-.4 1.8 1.8 0 0 1 .9.3 1.7 1.7 0 0 1 .5.6 1.8 1.8 0 0 1 0 1.1zM53.5 6.7h.2a2.2 2.2 0 0 1 .4 0 1.2 1.2 0 0 1 .5.1 1 1 0 0 1 .3.4 1.4 1.4 0 0 1 .1.7 4 4 0 0 1 0 .7l-.3 1.2-.2 1-.2.7a4.9 4.9 0 0 0 0 .6 1.8 1.8 0 0 0 0 .5.7.7 0 0 0 .2.2 1.5 1.5 0 0 0 .2.1.3.3 0 0 1 0 .2l-.2.4a1 1 0 0 1-.6.1 1.4 1.4 0 0 1-.8-.2 1.3 1.3 0 0 1-.5-1 2.9 2.9 0 0 1-.8.8 2.2 2.2 0 0 1-1.2.4 2.2 2.2 0 0 1-1.2-.3 1.8 1.8 0 0 1-.6-.6 2 2 0 0 1-.3-.7 3.5 3.5 0 0 1 0-.8V11a2.5 2.5 0 0 1 0-.3 1 1 0 0 1 0-.3 6.4 6.4 0 0 1 .5-1.6 4.8 4.8 0 0 1 .8-1.1 3 3 0 0 1 .9-.7 2.4 2.4 0 0 1 1-.2 2.3 2.3 0 0 1 .7 0 1.7 1.7 0 0 1 .5.3 1.1 1.1 0 0 1 .3.4 2.4 2.4 0 0 1 .2.3v-.2-.2a.5.5 0 0 0 0-.3.4.4 0 0 1-.1-.2.2.2 0 0 1 0-.1zm-.6 2.7a2.1 2.1 0 0 0 0-.3 2 2 0 0 0 0-.4 1.3 1.3 0 0 0 0-.4.8.8 0 0 0-.4-.3.6.6 0 0 0-.3-.1 1.1 1.1 0 0 0-.6.2 2.5 2.5 0 0 0-.7.7 4.4 4.4 0 0 0-.6 1.1 4.7 4.7 0 0 0-.2 1.6 1.8 1.8 0 0 0 0 .6 1 1 0 0 0 .3.4.6.6 0 0 0 .3.1 1.3 1.3 0 0 0 .8-.3 2.8 2.8 0 0 0 .7-.7 4 4 0 0 0 .4-.9l.2-.6a2.8 2.8 0 0 1 0-.3l.1-.4zM56.4 13.3a1.2 1.2 0 0 1-.3-.8 4 4 0 0 1-.1-1 7.8 7.8 0 0 1 .1-1l.3-1.2.3-1a6.5 6.5 0 0 0 .1-.7 1.4 1.4 0 0 0 0-.5v-.3a.2.2 0 0 1 0-.2h.6a1.2 1.2 0 0 1 .5.2 1 1 0 0 1 .4.5 1.8 1.8 0 0 1 .1.9A5.7 5.7 0 0 1 59.5 7a1.7 1.7 0 0 1 1.3-.5h.1a3.6 3.6 0 0 1 .4.2 1.1 1.1 0 0 1 .5.4 2.1 2.1 0 0 1 .3.9 4.4 4.4 0 0 1-.2 1.5l-.3 1.6a4.3 4.3 0 0 0-.1 1.1.9.9 0 0 0 0 .4.5.5 0 0 0 .2.2l.1.1a.3.3 0 0 1 0 .2v.3a1 1 0 0 1-.5.1 1.5 1.5 0 0 1-.5 0 1.2 1.2 0 0 1-.6-.3 1.2 1.2 0 0 1-.4-.7 3.4 3.4 0 0 1 0-1 6.6 6.6 0 0 1 0-1l.3-1.2V9a3 3 0 0 0 .1-.4 1.8 1.8 0 0 0 0-.4.3.3 0 0 0-.1-.2c-.2 0-.4 0-.6.2a3.6 3.6 0 0 0-.7.9 6.9 6.9 0 0 0-.7 1.3 6.3 6.3 0 0 0-.3 1.7v.2a1.3 1.3 0 0 0 0 .4.5.5 0 0 0 .2.1 1.6 1.6 0 0 1 .1.2.3.3 0 0 1 0 .1.3.3 0 0 1 0 .3 1 1 0 0 1-.5.2 1.6 1.6 0 0 1-.6 0 1.2 1.2 0 0 1-.6-.3zM69.6 3.8a.6.6 0 0 1 .3 0 1 1 0 0 1 .3.3.6.6 0 0 1 .1.4.6.6 0 0 1-.2.4 1.2 1.2 0 0 1-.6.3 5.2 5.2 0 0 1-.9.2 9 9 0 0 1-1 0h-1.2l-.1.5a2.9 2.9 0 0 1 0 .3l-.1.3-.3 1-.3 1.3v.4l-.2.3-.3 1.6a5.2 5.2 0 0 0-.1 1.2 1.3 1.3 0 0 0 0 .3.7.7 0 0 0 .2.2.4.4 0 0 0 0 .1l.2.1a.1.1 0 0 0 0 .1.2.2 0 0 1-.1.2 1 1 0 0 1-.2.2 1.2 1.2 0 0 1-.4 0 2 2 0 0 1-.4 0h-.4a.8.8 0 0 1-.3-.2 1.4 1.4 0 0 1-.4-1 6.3 6.3 0 0 1 .1-1.3 10.5 10.5 0 0 1 .3-1.5l.4-1.2.1-.6.1-.5.3-1 .2-.9h-1a4.3 4.3 0 0 0-.6 0l-.3.1a.3.3 0 0 1-.2 0 2 2 0 0 1-.2-.4.5.5 0 0 1 .1-.4 1.1 1.1 0 0 1 .6-.3 4.7 4.7 0 0 1 1.3-.1h.6l.1-.9V3a2 2 0 0 0 0-.2.4.4 0 0 0-.1-.2l-.1-.2a.3.3 0 0 1 0-.1v-.1a.5.5 0 0 1 0-.2.5.5 0 0 1 .3-.2 1 1 0 0 1 .4 0 1 1 0 0 1 .5.2 1.3 1.3 0 0 1 .4.7 2.6 2.6 0 0 1 .1.7 6 6 0 0 1 0 .9h1.2a6.8 6.8 0 0 0 1 0A1.7 1.7 0 0 0 69 4a.6.6 0 0 0 .2 0l.2-.2zM79.8 9.9v.3l-.1.3-.4 1.6a4.6 4.6 0 0 0 0 1.2 1.2 1.2 0 0 0 0 .3.5.5 0 0 0 .1.2l.1.1a.2.2 0 0 1 .1.1v.1c0 .2 0 .3-.3.4a1.2 1.2 0 0 1-.8.1 1.1 1.1 0 0 1-.6-.3 1.4 1.4 0 0 1-.4-1 5.6 5.6 0 0 1 0-1.3 11.1 11.1 0 0 1 .3-1.5l.3-1.2.6-2.3a14.2 14.2 0 0 0 .4-1.7 2.5 2.5 0 0 0 0-1c0-.2-.3-.3-.5-.2s-.1 0-.1 0v-.2a2 2 0 0 1 .5-.6 1.2 1.2 0 0 1 1-.1 1 1 0 0 1 .7.5 2 2 0 0 1 .2 1 7 7 0 0 1-.1 1.3l-.4 1.6-.1.5-.2.6a4.2 4.2 0 0 0 2-.6 4.7 4.7 0 0 0 1.1-1 4.2 4.2 0 0 0 .7-1.3 4.3 4.3 0 0 0 .2-1.6A3 3 0 0 0 84 3a2 2 0 0 0-.7-.9 5 5 0 0 0-.8-.4 3.3 3.3 0 0 0-1-.2 5.8 5.8 0 0 0-1.4.2 4 4 0 0 0-1 .4 3 3 0 0 0-.9.5 4.2 4.2 0 0 0-.5.7.8.8 0 0 0-.1.2 2.3 2.3 0 0 0-.2.5 4.4 4.4 0 0 0-.2.6 3.6 3.6 0 0 0 0 .9 3.4 3.4 0 0 0-.1.4 2.5 2.5 0 0 0 0 .4l.2.2q.1.3.6 0h.1v.2a1.5 1.5 0 0 1 0 .3 1 1 0 0 1-.2.3 1 1 0 0 1-.4.3 1.1 1.1 0 0 1-.5 0 1.2 1.2 0 0 1-.8-.1 1.6 1.6 0 0 1-.5-.9 3.2 3.2 0 0 1-.1-.5 4 4 0 0 1 0-1 7.2 7.2 0 0 1 .1-.9 4.5 4.5 0 0 1 2.3-2.8 5.7 5.7 0 0 1 1.7-.6 8.9 8.9 0 0 1 2.3 0 5.8 5.8 0 0 1 2.3.6 4.9 4.9 0 0 1 .8.6 3 3 0 0 1 .6.9 3.7 3.7 0 0 1 .3 1.2 5.2 5.2 0 0 1 0 1.5 5.4 5.4 0 0 1-.8 1.8 5.5 5.5 0 0 1-.6.7 4 4 0 0 1-.8.6 4.6 4.6 0 0 1-1 .5 6.4 6.4 0 0 1-1.3.3 7.5 7.5 0 0 1 1.1 1l1.2 1.3 1 1.2a8 8 0 0 0 .8.9 4.5 4.5 0 0 0 .8.5 3.3 3.3 0 0 0 .8.4 2 2 0 0 0 .8 0 1.4 1.4 0 0 0 .7-.3 1 1 0 0 0 .3-.4 1 1 0 0 0 0-.4l.1-.2a.5.5 0 0 1 .3 0 .9.9 0 0 1 .2.1 1.2 1.2 0 0 1 .3.2 1 1 0 0 1 .3.8 1.4 1.4 0 0 1-.3.7 2.4 2.4 0 0 1-.6.6 3 3 0 0 1-1 .4 2.8 2.8 0 0 1-1.2 0 4.2 4.2 0 0 1-1.6-.6 8.4 8.4 0 0 1-1.3-1.1 17 17 0 0 1-1.2-1.4l-1-1.4-1-1.2a4 4 0 0 0-1-.8z"/><path fill="#fff" d="M88.6 13.6a4 4 0 0 1-1-.2 3 3 0 0 1-.8-.5 2.2 2.2 0 0 1-.4-.5 2.9 2.9 0 0 1-.3-.6 4 4 0 0 1 0-1.7 5 5 0 0 1 .6-1.8 3.3 3.3 0 0 1 .4-.6 2.8 2.8 0 0 1 .6-.6 3 3 0 0 1 .9-.3 3.5 3.5 0 0 1 1-.1 2 2 0 0 1 .9.2 1.5 1.5 0 0 1 .6.6 1.8 1.8 0 0 1 .2 1 3.4 3.4 0 0 1-.4 1.3 1.7 1.7 0 0 1-.8.8 2 2 0 0 1-1 .2 1.5 1.5 0 0 1-.7-.2 1 1 0 0 1-.5-.5 4.7 4.7 0 0 0 0 .8 2.3 2.3 0 0 0 0 .7 1.3 1.3 0 0 0 .3.6 1.2 1.2 0 0 0 .8.3 1.8 1.8 0 0 0 .8 0 3.5 3.5 0 0 0 .7-.4 4.3 4.3 0 0 0 .5-.4l.2-.1a.2.2 0 0 1 .1.2v.2a2.2 2.2 0 0 1-.7 1 3.3 3.3 0 0 1-.9.5 2.7 2.7 0 0 1-1 0zm1.3-6a.8.8 0 0 0-.7.2 1.8 1.8 0 0 0-.5.5 3.5 3.5 0 0 0-.4.7l-.3.8a2 2 0 0 0 1-.2 1.7 1.7 0 0 0 .8-.8 2 2 0 0 0 .2-.6.9.9 0 0 0 0-.3.4.4 0 0 0-.2-.2zM99.5 7.6a.5.5 0 0 1-.1.1l-.2.1a.2.2 0 0 1-.2-.2l-.3-.2a.3.3 0 0 0-.2 0 1.8 1.8 0 0 0-.6.8 1.5 1.5 0 0 0 0 .2 3.8 3.8 0 0 1-.2.4l-.4 1-.7 1.4a11.4 11.4 0 0 1-1 1.4 3 3 0 0 1-1 1 1 1 0 0 1-.3 0h-.4a1.4 1.4 0 0 1-.9-.4 2 2 0 0 1-.4-.8 1.7 1.7 0 0 1 0-.4v-.4c0-.4 0-.7.2-1.1s.1-.8.2-1.1l.3-1 .1-.6a2.1 2.1 0 0 0 0-.6V7a.2.2 0 0 1 0-.2 3.7 3.7 0 0 1 .6 0 1 1 0 0 1 .6.2 1.1 1.1 0 0 1 .4.6 2.3 2.3 0 0 1 0 1.1 61.8 61.8 0 0 1-.6 2.8 3.3 3.3 0 0 0 0 .7 1.3 1.3 0 0 0 .1.5 1.6 1.6 0 0 0 .5-.5 7 7 0 0 0 .4-.7l.4-1 .3-1 .3-.7.1-.6a.4.4 0 0 0 0-.1V8a4.3 4.3 0 0 1 .2-.5 4.2 4.2 0 0 1 .3-.7 2.1 2.1 0 0 1 .6-.6 1.2 1.2 0 0 1 .8-.2 1.4 1.4 0 0 1 .7.3 1 1 0 0 1 .3.5 1.4 1.4 0 0 1 0 .8zM101 7.7a1.6 1.6 0 0 0 0-.5v-.3a.1.1 0 0 1 0-.1.2.2 0 0 1 0-.1 5.5 5.5 0 0 1 .6 0 1.1 1.1 0 0 1 .6.2 1 1 0 0 1 .4.6 2.3 2.3 0 0 1 0 1.1l-.3 1.3-.2 1-.2.8a3.8 3.8 0 0 0 0 .7.8.8 0 0 0 0 .3.6.6 0 0 0 .2.2 1.6 1.6 0 0 0 .2.1.3.3 0 0 1 0 .2.3.3 0 0 1-.1.3 1 1 0 0 1-.4.2 1.4 1.4 0 0 1-.6 0 1.2 1.2 0 0 1-.6-.4 1.1 1.1 0 0 1-.4-.6 3.9 3.9 0 0 1 0-1 5.8 5.8 0 0 1 .1-1.2c0-.4.2-.8.3-1.1l.2-1a6 6 0 0 0 .2-.7zm1.2-1.4a.7.7 0 0 1-.6-.4 1.1 1.1 0 0 1-.2-.8 1.4 1.4 0 0 1 .4-.8 1 1 0 0 1 .7-.3.7.7 0 0 1 .6.3 1.2 1.2 0 0 1 .2.8 1.4 1.4 0 0 1-.4.8 1 1 0 0 1-.8.4zM106.5 13.6a4 4 0 0 1-1.1-.2 3 3 0 0 1-.8-.5 2.2 2.2 0 0 1-.4-.5 2.9 2.9 0 0 1-.3-.6 4 4 0 0 1 0-1.7 5 5 0 0 1 .6-1.8 3.3 3.3 0 0 1 .4-.6 3 3 0 0 1 .6-.6 3.2 3.2 0 0 1 .9-.3 3.5 3.5 0 0 1 1-.1 2 2 0 0 1 1 .2 1.5 1.5 0 0 1 .6.6 1.8 1.8 0 0 1 .2 1 3.4 3.4 0 0 1-.5 1.3 1.7 1.7 0 0 1-.8.8 2 2 0 0 1-1 .2 1.5 1.5 0 0 1-.7-.2 1 1 0 0 1-.4-.5 4.7 4.7 0 0 0-.2.8 2.3 2.3 0 0 0 .1.7 1.3 1.3 0 0 0 .3.6 1.2 1.2 0 0 0 .8.3 1.8 1.8 0 0 0 .8 0 3.5 3.5 0 0 0 .7-.4 4.3 4.3 0 0 0 .5-.4l.2-.1a.2.2 0 0 1 .1.2v.2a2.2 2.2 0 0 1-.7 1 3.4 3.4 0 0 1-.9.5 2.7 2.7 0 0 1-1 0zm1.2-6a.8.8 0 0 0-.7.2 1.8 1.8 0 0 0-.5.5 3.5 3.5 0 0 0-.4.7 6.4 6.4 0 0 0-.3.8 2 2 0 0 0 1-.2 1.7 1.7 0 0 0 .8-.8 2 2 0 0 0 .2-.6.9.9 0 0 0 0-.3.4.4 0 0 0-.1-.2zM115.3 13.6a1.9 1.9 0 0 1-1-.3 1.9 1.9 0 0 1-.5-.5 3.1 3.1 0 0 1-.8.6 1.6 1.6 0 0 1-.8.2 2.1 2.1 0 0 1-.8-.1 1.8 1.8 0 0 1-.4-.3 1.2 1.2 0 0 1-.3-.4 2 2 0 0 1-.2-.4 2.3 2.3 0 0 1 0-.4v-.4a9.5 9.5 0 0 1 .1-1.2l.3-1 .2-1a5 5 0 0 0 .2-.6 1.7 1.7 0 0 0 0-.6l-.1-.2a.2.2 0 0 1 0-.2 3.7 3.7 0 0 1 .7 0 1.1 1.1 0 0 1 .5.2 1.2 1.2 0 0 1 .4.6 2.1 2.1 0 0 1 0 1.1l-.3 1.6-.3 1.2a2.2 2.2 0 0 0 0 .7 1.2 1.2 0 0 0 .2.3.3.3 0 0 0 .2.2.8.8 0 0 0 .6-.2 2 2 0 0 0 .4-.5v-.4l.2-1 .2-1 .2-.9a4.3 4.3 0 0 0 .2-.6 1.4 1.4 0 0 0 0-.5v-.2a.2.2 0 0 1 0-.1.3.3 0 0 1 0-.1h.1a2.5 2.5 0 0 1 .6 0 1 1 0 0 1 .5.1 1.2 1.2 0 0 1 .4.6 2.5 2.5 0 0 1-.1 1.1l-.2.8-.1.6-.1.5-.1.5a2 2 0 0 0 0 .7 1.2 1.2 0 0 0 .1.4.3.3 0 0 0 .3.1h.1a1 1 0 0 0 .3-.2 2.2 2.2 0 0 0 .5-.7 9.2 9.2 0 0 0 .4-1.5 25.8 25.8 0 0 0 .4-2.6 3.6 3.6 0 0 0 0-.5 1 1 0 0 0 0-.4.3.3 0 0 0-.3-.2.4.4 0 0 0-.3 0 .2.2 0 0 1-.2.1.2.2 0 0 1-.1-.2.5.5 0 0 1 0-.1 1.2 1.2 0 0 1 .4-.8 1.1 1.1 0 0 1 .6-.2 1.4 1.4 0 0 1 .7.1 1.2 1.2 0 0 1 .6.6 2.4 2.4 0 0 1 .2.9 3.8 3.8 0 0 1 0 .7 4.4 4.4 0 0 1-.2.5l-.3 1.1-.3 1-.4 1-.1.2a8.4 8.4 0 0 1-.5.9 4.5 4.5 0 0 1-.5.7 2.5 2.5 0 0 1-.7.5 1.5 1.5 0 0 1-.7.1zM119.3 13a1 1 0 0 0 .1-.2 1.7 1.7 0 0 1 .3-.4 4.8 4.8 0 0 1 .4-.5 5.3 5.3 0 0 1 .7-.5l-.4-1a5.3 5.3 0 0 1-.3-1.2 3.5 3.5 0 0 1 .2-1.4 2.3 2.3 0 0 1 1-1.2 2.6 2.6 0 0 1 .3-.2h.5a1.8 1.8 0 0 1 .5 0 2 2 0 0 1 .6.1 1.6 1.6 0 0 1 .5.4V7a1.6 1.6 0 0 1 .2.2 2 2 0 0 1 .3 1 2.2 2.2 0 0 1-.2 1 2 2 0 0 1-.6.6 1.7 1.7 0 0 1-.6.3h-.2a.3.3 0 0 1-.2-.1.2.2 0 0 1 0-.3 1.4 1.4 0 0 0 .2-.7 1.6 1.6 0 0 0 0-.6c-.1-.4-.3-.6-.4-.6a.5.5 0 0 0-.4.1 1.3 1.3 0 0 0-.3.7 4 4 0 0 0 0 1.1 1.5 1.5 0 0 0 0 .4 3.7 3.7 0 0 0 .4.6 5.7 5.7 0 0 1 1-.2 4.5 4.5 0 0 1 1.6 0 .8.8 0 0 1 .3 0 .6.6 0 0 1 .1.2.3.3 0 0 1 0 .2c0 .1 0 .2-.2.2h-.6l-.9.2a4.4 4.4 0 0 0-.8.2 7.1 7.1 0 0 1 .3 1.1 3.2 3.2 0 0 1 0 1.3 1.8 1.8 0 0 1-.2.6 1.7 1.7 0 0 1-.5.6 2.1 2.1 0 0 1-.7.3 2.4 2.4 0 0 1-1 0 1.8 1.8 0 0 1-.7-.2 1.4 1.4 0 0 1-.4-.3 1.3 1.3 0 0 1-.3-.7 1.8 1.8 0 0 1 0-.6 3.5 3.5 0 0 1 0-.4 4.4 4.4 0 0 1 .4-.3zm1.8-.7a4.4 4.4 0 0 0-.6.6 2.1 2.1 0 0 0-.5.9 1.4 1.4 0 0 0 0 .3.9.9 0 0 0 0 .3.3.3 0 0 0 .1.2.5.5 0 0 0 .5 0 1.5 1.5 0 0 0 .3-.3v-.1a.6.6 0 0 1 0-.1 2 2 0 0 0 .2-.9 5.9 5.9 0 0 0 0-.9z"/></svg>